<?xml version="1.0" encoding="UTF-8" ?>
<!DOCTYPE svg PUBLIC "-//W3C//DTD SVG 1.1//EN" "http://www.w3.org/Graphics/SVG/1.1/DTD/svg11.dtd">
<svg width="180pt" height="190pt" viewBox="0 0 180 190" version="1.1" xmlns="http://www.w3.org/2000/svg">
<g id="#447b54ff">
<path fill="#447b54" opacity="1.00" d=" M 22.64 16.27 C 39.45 16.31 56.23 15.50 73.04 15.63 C 88.38 15.75 104.42 14.42 118.91 20.48 C 128.81 24.16 138.18 29.90 145.12 37.94 C 147.02 39.60 144.85 41.60 143.79 42.99 C 138.33 49.49 132.81 55.96 127.52 62.59 C 127.23 62.65 126.66 62.79 126.38 62.85 C 120.09 54.61 110.50 49.10 100.29 47.49 C 92.58 45.83 84.63 46.54 76.81 46.71 C 75.97 48.59 75.13 50.47 74.28 52.35 C 59.95 51.71 45.57 52.74 31.28 51.46 C 32.60 46.73 33.48 41.89 34.58 37.11 C 33.32 33.41 30.59 30.39 28.88 26.88 C 27.04 23.20 24.71 19.81 22.64 16.27 M 43.30 21.25 C 43.76 21.78 43.76 21.78 43.30 21.25 M 53.31 44.14 C 53.51 47.48 56.24 42.53 53.31 44.14 M 51.29 49.32 C 51.83 49.77 51.83 49.77 51.29 49.32 Z" />
<path fill="#447b54" opacity="1.00" d=" M 19.27 71.97 C 18.72 63.98 25.88 56.05 34.01 56.62 C 48.36 56.89 62.73 56.32 77.05 57.27 C 80.12 57.18 82.70 59.17 84.88 61.09 C 85.21 62.02 85.81 62.75 86.66 63.26 C 88.96 65.92 89.87 69.57 90.15 73.01 C 90.33 78.81 90.57 84.61 90.38 90.41 C 82.37 88.93 74.16 89.27 66.04 89.27 C 60.05 89.59 53.22 89.30 48.42 93.53 C 46.01 95.28 44.89 98.12 43.67 100.72 C 41.65 100.72 39.63 100.70 37.61 100.66 C 35.76 104.08 37.84 107.87 37.95 111.46 C 30.86 107.31 24.64 101.40 20.91 94.03 C 18.43 86.95 19.67 79.31 19.27 71.97 M 48.03 67.71 C 48.90 68.88 49.78 70.04 50.67 71.20 C 50.77 70.80 50.97 69.99 51.06 69.58 C 54.24 70.35 57.43 69.51 60.22 67.92 C 59.67 67.20 59.13 66.47 58.59 65.75 C 58.72 65.27 58.99 64.30 59.12 63.82 C 57.56 63.70 56.00 63.59 54.43 63.48 C 53.86 62.62 53.29 61.76 52.72 60.90 C 49.28 61.64 50.15 65.63 48.03 67.71 M 47.31 64.13 C 47.70 67.46 50.14 62.36 47.31 64.13 M 76.39 71.07 C 75.97 72.46 76.46 72.95 77.87 72.54 C 78.29 71.15 77.80 70.66 76.39 71.07 M 39.40 75.93 L 37.58 75.68 C 36.95 77.37 35.62 79.26 37.05 80.96 C 38.36 83.79 41.97 82.33 44.38 82.38 C 44.73 80.56 44.89 78.71 44.76 76.86 C 44.01 76.56 42.53 75.96 41.79 75.66 C 42.18 73.90 38.62 74.30 39.40 75.93 M 53.27 75.99 L 51.72 75.62 C 51.34 76.06 50.58 76.93 50.20 77.37 C 50.14 78.50 50.09 79.63 50.05 80.76 C 52.58 82.46 55.82 83.66 58.47 81.47 C 58.48 79.43 59.04 75.27 55.63 76.14 C 56.42 74.39 52.71 74.16 53.27 75.99 M 65.90 76.06 C 64.74 77.67 65.68 79.73 65.63 81.51 C 67.63 82.62 70.50 83.44 72.02 81.15 C 73.27 79.35 72.90 76.82 71.11 75.52 C 69.38 74.91 67.47 75.11 65.90 76.06 M 80.28 84.11 C 80.43 87.45 83.25 82.56 80.28 84.11 Z" />
<path fill="#447b54" opacity="1.00" d=" M 160.03 74.20 C 161.20 71.89 162.78 68.57 165.54 68.18 C 166.44 70.24 166.81 72.48 166.92 74.72 C 167.32 89.16 169.45 104.07 165.00 118.13 C 164.63 116.23 164.36 114.31 164.25 112.37 C 163.05 111.56 161.83 110.76 160.62 109.96 C 160.51 108.74 160.40 107.51 160.29 106.29 C 161.12 105.62 161.96 104.96 162.79 104.29 C 160.99 104.16 159.19 104.02 157.39 103.89 C 157.11 101.94 156.82 99.98 156.55 98.03 C 155.48 98.13 154.40 98.22 153.32 98.31 C 155.27 97.27 157.35 96.53 159.51 96.08 C 160.62 94.88 161.71 93.66 162.80 92.44 C 162.00 91.99 161.19 91.53 160.39 91.08 C 159.90 92.37 159.42 93.66 158.94 94.95 C 158.53 94.73 157.70 94.30 157.29 94.08 C 157.43 93.14 157.57 92.20 157.72 91.27 C 156.93 90.44 156.13 89.62 155.34 88.79 C 155.81 87.69 156.28 86.59 156.74 85.48 C 154.46 87.22 152.86 89.60 151.03 91.76 C 150.31 92.91 148.96 91.93 147.97 91.86 C 147.77 92.64 147.57 93.43 147.37 94.22 C 147.83 94.71 148.30 95.21 148.78 95.71 C 146.80 95.93 144.83 96.17 142.86 96.42 C 143.18 95.57 143.52 94.72 143.86 93.88 C 145.62 91.05 147.89 88.55 150.00 85.97 C 150.31 85.55 150.94 84.69 151.25 84.27 C 152.83 82.08 154.49 79.86 156.68 78.25 C 158.27 77.35 159.55 76.00 160.03 74.20 M 152.27 87.28 C 152.76 87.78 152.76 87.78 152.27 87.28 Z" />
<path fill="#447b54" opacity="1.00" d=" M 147.51 108.39 C 149.65 107.88 151.81 107.40 153.96 106.92 C 153.15 108.52 152.35 110.13 151.57 111.74 C 150.14 110.71 148.79 109.59 147.51 108.39 Z" />
<path fill="#447b54" opacity="1.00" d=" M 143.63 148.71 C 147.62 147.96 151.45 146.60 155.03 144.67 C 153.22 148.31 150.35 151.23 147.76 154.31 C 146.65 153.62 145.54 152.94 144.43 152.25 C 145.53 151.23 146.64 150.22 147.75 149.20 C 146.38 149.03 145.00 148.87 143.63 148.71 Z" />
</g>
<g id="#9baf95fd">
<path fill="#9baf95" opacity="1.00" d=" M 43.30 21.25 C 43.76 21.78 43.76 21.78 43.30 21.25 Z" />
<path fill="#9baf95" opacity="1.00" d=" M 53.31 44.14 C 56.24 42.53 53.51 47.48 53.31 44.14 Z" />
<path fill="#9baf95" opacity="1.00" d=" M 51.29 49.32 C 51.83 49.77 51.83 49.77 51.29 49.32 Z" />
<path fill="#9baf95" opacity="1.00" d=" M 52.36 63.22 C 52.85 63.73 52.85 63.73 52.36 63.22 Z" />
<path fill="#9baf95" opacity="1.00" d=" M 47.31 64.13 C 50.14 62.36 47.70 67.46 47.31 64.13 Z" />
<path fill="#9baf95" opacity="1.00" d=" M 50.20 77.37 C 50.58 76.93 51.34 76.06 51.72 75.62 C 51.33 77.38 50.98 79.15 50.67 80.92 C 53.13 82.25 55.83 82.11 58.47 81.47 C 55.82 83.66 52.58 82.46 50.05 80.76 C 50.09 79.63 50.14 78.50 50.20 77.37 Z" />
<path fill="#9baf95" opacity="1.00" d=" M 152.27 87.28 C 152.76 87.78 152.76 87.78 152.27 87.28 Z" />
<path fill="#9baf95" opacity="1.00" d=" M 154.25 92.32 C 154.76 92.80 154.76 92.80 154.25 92.32 Z" />
<path fill="#9baf95" opacity="1.00" d=" M 146.30 104.34 C 146.78 104.85 146.78 104.85 146.30 104.34 Z" />
<path fill="#9baf95" opacity="1.00" d=" M 40.89 107.53 C 39.19 106.84 41.14 103.95 42.04 105.88 C 41.92 106.27 41.67 107.04 41.55 107.42 L 40.89 107.53 Z" />
<path fill="#9baf95" opacity="1.00" d=" M 109.08 110.06 C 110.86 110.89 112.26 112.33 113.73 113.61 C 113.55 115.20 113.39 116.80 113.24 118.39 C 110.78 120.17 108.21 121.87 105.30 122.81 C 104.82 122.44 103.87 121.72 103.39 121.36 C 102.92 120.51 102.52 119.63 102.17 118.73 C 103.53 115.26 106.05 112.20 109.08 110.06 Z" />
<path fill="#9baf95" opacity="1.00" d=" M 141.23 122.27 C 141.74 122.75 141.74 122.75 141.23 122.27 Z" />
<path fill="#9baf95" opacity="1.00" d=" M 34.20 133.26 C 34.73 133.73 34.73 133.73 34.20 133.26 Z" />
<path fill="#9baf95" opacity="1.00" d=" M 42.24 140.22 C 42.76 140.69 42.76 140.69 42.24 140.22 Z" />
<path fill="#9baf95" opacity="1.00" d=" M 53.23 145.27 C 54.64 144.91 55.12 145.43 54.66 146.81 C 53.25 147.15 52.77 146.64 53.23 145.27 Z" />
<path fill="#9baf95" opacity="1.00" d=" M 34.27 152.27 C 34.75 152.78 34.75 152.78 34.27 152.27 Z" />
<path fill="#9baf95" opacity="1.00" d=" M 39.29 152.28 C 39.82 152.74 39.82 152.74 39.29 152.28 Z" />
<path fill="#9baf95" opacity="1.00" d=" M 72.53 154.10 C 73.74 153.22 74.41 153.47 74.54 154.87 C 73.34 155.75 72.67 155.49 72.53 154.10 Z" />
<path fill="#9baf95" opacity="1.00" d=" M 44.30 158.30 C 44.82 158.78 44.82 158.78 44.30 158.30 Z" />
<path fill="#9baf95" opacity="1.00" d=" M 40.20 159.26 C 40.69 159.76 40.69 159.76 40.20 159.26 Z" />
<path fill="#9baf95" opacity="1.00" d=" M 101.29 167.05 C 104.34 165.68 101.23 170.39 101.29 167.05 Z" />
<path fill="#9baf95" opacity="1.00" d=" M 19.29 169.26 C 19.77 169.77 19.77 169.77 19.29 169.26 Z" />
<path fill="#9baf95" opacity="1.00" d=" M 29.17 170.32 C 32.50 170.69 27.44 173.18 29.17 170.32 Z" />
<path fill="#9baf95" opacity="1.00" d=" M 96.34 170.06 C 99.34 168.58 96.42 173.40 96.34 170.06 Z" />
<path fill="#9baf95" opacity="1.00" d=" M 70.25 174.08 C 73.25 172.59 70.33 177.42 70.25 174.08 Z" />
</g>
<g id="#285536ff">
<path fill="#285536" opacity="1.00" d=" M 144.27 48.90 C 146.35 46.40 148.16 43.55 150.81 41.60 C 153.66 41.42 156.66 42.43 158.73 44.40 C 159.25 45.30 160.01 45.88 161.02 46.12 C 162.30 46.49 163.21 47.54 163.94 48.60 C 165.11 51.21 167.08 53.87 166.83 56.83 C 164.47 60.33 161.31 63.26 159.39 67.08 C 154.37 73.59 149.39 80.15 144.11 86.45 C 141.19 89.29 138.56 92.45 136.56 96.02 C 132.75 101.05 129.05 106.29 124.58 110.76 C 123.68 111.27 123.09 112.03 122.81 113.03 L 122.53 113.53 C 121.59 113.99 121.00 114.73 120.78 115.75 C 120.20 117.52 118.95 119.38 117.04 119.84 C 116.00 120.02 115.22 120.58 114.70 121.50 C 112.96 123.61 110.34 124.62 107.96 125.80 C 107.81 125.04 107.67 124.27 107.52 123.51 C 106.77 123.29 106.03 123.05 105.30 122.81 C 108.21 121.87 110.78 120.17 113.24 118.39 C 114.34 117.60 115.44 116.80 116.45 115.89 C 114.91 112.00 111.36 109.26 107.90 107.13 C 106.56 106.39 105.14 105.81 103.74 105.19 C 102.25 108.68 100.78 112.21 99.79 115.88 C 99.44 117.13 99.09 118.37 98.74 119.62 C 97.75 119.29 96.75 118.96 95.76 118.62 C 96.25 116.56 96.68 114.49 97.32 112.47 C 98.90 107.50 101.58 103.02 104.58 98.79 L 104.80 98.47 L 105.42 98.16 C 106.83 97.68 107.53 96.30 108.05 95.01 C 110.25 91.03 113.22 87.39 116.56 84.31 C 117.96 83.46 119.02 82.19 119.41 80.58 C 119.67 79.44 120.34 78.63 121.40 78.16 C 122.42 77.65 123.57 76.80 123.39 75.50 L 123.45 74.42 L 124.35 74.18 C 125.42 73.93 126.01 73.22 126.13 72.06 C 126.39 70.75 127.02 69.51 128.43 69.20 C 129.51 68.89 130.12 68.21 130.24 67.14 C 130.31 66.76 130.45 66.01 130.52 65.63 L 131.53 65.23 C 133.42 64.81 134.49 63.14 134.95 61.38 C 135.26 60.81 135.88 59.69 136.19 59.12 C 137.06 58.61 137.63 57.87 137.92 56.90 C 138.20 56.55 138.75 55.86 139.02 55.51 C 141.00 53.50 142.72 51.26 144.27 48.90 M 148.17 49.28 L 148.00 51.13 L 148.35 51.92 C 148.77 51.81 149.60 51.59 150.02 51.48 C 152.59 53.39 155.56 54.89 157.41 57.61 C 158.47 58.57 159.02 60.46 160.53 60.73 C 161.80 56.73 157.48 54.56 155.31 51.99 C 153.73 49.68 150.88 48.62 148.17 49.28 M 144.41 53.37 C 143.25 55.25 144.71 56.17 146.61 55.82 C 147.59 56.28 148.57 56.75 149.55 57.22 C 149.59 57.25 149.67 57.30 149.72 57.33 C 152.48 59.26 154.62 61.89 156.72 64.49 L 156.75 65.42 C 160.18 62.89 156.78 58.85 153.97 57.61 C 152.81 56.61 151.55 55.72 150.27 54.90 C 148.75 53.54 146.29 51.78 144.41 53.37 M 133.07 70.02 C 124.14 80.86 115.27 91.77 106.79 102.97 C 107.74 103.28 108.70 103.59 109.65 103.91 C 121.57 88.87 133.99 74.20 145.46 58.80 C 145.09 58.56 144.33 58.06 143.96 57.82 C 139.00 60.43 136.48 65.82 133.07 70.02 M 113.56 111.33 C 116.19 109.25 118.27 106.55 119.60 103.47 C 116.82 105.38 114.08 107.80 113.56 111.33 Z" />
</g>
<g id="#54604e9d">
<path fill="#54604e" opacity="0.62" d=" M 158.73 44.40 C 160.44 43.80 161.20 44.37 161.02 46.12 C 160.01 45.88 159.25 45.30 158.73 44.40 Z" />
<path fill="#54604e" opacity="0.62" d=" M 148.17 49.28 C 150.88 48.62 153.73 49.68 155.31 51.99 C 153.04 50.80 150.62 49.99 148.17 49.28 Z" />
<path fill="#54604e" opacity="0.62" d=" M 163.94 48.60 C 167.00 50.87 167.74 54.62 167.27 58.22 C 164.42 60.98 162.38 64.46 159.39 67.08 C 161.31 63.26 164.47 60.33 166.83 56.83 C 167.08 53.87 165.11 51.21 163.94 48.60 Z" />
<path fill="#54604e" opacity="0.62" d=" M 148.00 51.13 C 148.50 51.22 149.51 51.39 150.02 51.48 C 149.60 51.59 148.77 51.81 148.35 51.92 L 148.00 51.13 Z" />
<path fill="#54604e" opacity="0.62" d=" M 144.41 53.37 C 146.29 51.78 148.75 53.54 150.27 54.90 C 148.65 54.50 146.93 53.47 145.26 54.17 C 145.60 54.58 146.27 55.41 146.61 55.82 C 144.71 56.17 143.25 55.25 144.41 53.37 Z" />
<path fill="#54604e" opacity="0.62" d=" M 149.55 57.22 C 149.59 57.25 149.67 57.30 149.72 57.33 C 149.67 57.30 149.59 57.25 149.55 57.22 Z" />
<path fill="#54604e" opacity="0.62" d=" M 133.07 70.02 C 136.48 65.82 139.00 60.43 143.96 57.82 C 144.33 58.06 145.09 58.56 145.46 58.80 C 133.99 74.20 121.57 88.87 109.65 103.91 C 108.70 103.59 107.74 103.28 106.79 102.97 C 115.27 91.77 124.14 80.86 133.07 70.02 Z" />
<path fill="#54604e" opacity="0.62" d=" M 153.97 57.61 C 156.78 58.85 160.18 62.89 156.75 65.42 L 156.72 64.49 C 157.04 61.83 155.59 59.57 153.97 57.61 Z" />
<path fill="#54604e" opacity="0.62" d=" M 131.53 65.23 C 130.95 63.54 133.20 60.88 134.95 61.38 C 134.49 63.14 133.42 64.81 131.53 65.23 Z" />
<path fill="#54604e" opacity="0.62" d=" M 128.43 69.20 C 127.99 67.55 128.59 66.86 130.24 67.14 C 130.12 68.21 129.51 68.89 128.43 69.20 Z" />
<path fill="#54604e" opacity="0.62" d=" M 124.35 74.18 C 123.92 72.55 124.52 71.84 126.13 72.06 C 126.01 73.22 125.42 73.93 124.35 74.18 Z" />
<path fill="#54604e" opacity="0.62" d=" M 156.68 78.25 C 155.77 76.51 158.20 73.65 160.03 74.20 C 159.55 76.00 158.27 77.35 156.68 78.25 Z" />
<path fill="#54604e" opacity="0.62" d=" M 39.40 75.93 C 38.62 74.30 42.18 73.90 41.79 75.66 C 41.19 75.73 40.00 75.87 39.40 75.93 Z" />
<path fill="#54604e" opacity="0.62" d=" M 121.40 78.16 C 120.42 77.04 122.00 74.68 123.39 75.50 C 123.57 76.80 122.42 77.65 121.40 78.16 Z" />
<path fill="#54604e" opacity="0.62" d=" M 166.92 74.72 C 168.56 83.81 169.75 93.22 168.26 102.43 C 167.41 109.80 167.55 117.63 163.98 124.36 C 164.37 122.29 164.70 120.21 165.00 118.13 C 169.45 104.07 167.32 89.16 166.92 74.72 Z" />
<path fill="#54604e" opacity="0.62" d=" M 37.05 80.96 C 35.62 79.26 36.95 77.37 37.58 75.68 C 37.14 78.18 37.21 82.79 40.98 82.00 C 43.85 82.19 44.11 78.87 44.76 76.86 C 44.89 78.71 44.73 80.56 44.38 82.38 C 41.97 82.33 38.36 83.79 37.05 80.96 Z" />
<path fill="#54604e" opacity="0.62" d=" M 116.56 84.31 C 115.61 82.79 117.68 79.82 119.41 80.58 C 119.02 82.19 117.96 83.46 116.56 84.31 Z" />
<path fill="#54604e" opacity="0.62" d=" M 65.63 81.51 C 67.77 81.49 69.90 81.45 72.02 81.15 C 70.50 83.44 67.63 82.62 65.63 81.51 Z" />
<path fill="#54604e" opacity="0.62" d=" M 136.56 96.02 C 138.56 92.45 141.19 89.29 144.11 86.45 C 142.33 90.15 139.55 93.25 136.56 96.02 Z" />
<path fill="#54604e" opacity="0.62" d=" M 105.42 98.16 C 104.47 96.75 106.49 94.20 108.05 95.01 C 107.53 96.30 106.83 97.68 105.42 98.16 Z" />
<path fill="#54604e" opacity="0.62" d=" M 97.32 112.47 C 97.77 107.12 100.13 101.96 104.58 98.79 C 101.58 103.02 98.90 107.50 97.32 112.47 Z" />
<path fill="#54604e" opacity="0.62" d=" M 107.90 107.13 C 111.36 109.26 114.91 112.00 116.45 115.89 C 115.44 116.80 114.34 117.60 113.24 118.39 C 113.39 116.80 113.55 115.20 113.73 113.61 C 112.26 112.33 110.86 110.89 109.08 110.06 C 106.05 112.20 103.53 115.26 102.17 118.73 C 102.52 119.63 102.92 120.51 103.39 121.36 C 101.88 120.68 100.31 120.16 98.74 119.62 C 99.09 118.37 99.44 117.13 99.79 115.88 C 99.81 116.58 99.86 117.98 99.89 118.68 C 103.19 115.35 106.05 111.63 109.08 108.07 C 108.79 107.83 108.20 107.36 107.90 107.13 Z" />
<path fill="#54604e" opacity="0.62" d=" M 64.94 112.73 C 66.98 110.89 70.70 111.13 72.20 113.54 C 72.62 115.24 71.94 116.93 71.62 118.58 C 69.67 118.70 67.73 118.78 65.78 118.87 C 67.74 118.28 71.27 118.88 71.32 115.98 C 72.06 112.27 67.47 111.93 64.94 112.73 Z" />
<path fill="#54604e" opacity="0.62" d=" M 122.81 113.03 C 123.09 112.03 123.68 111.27 124.58 110.76 C 125.16 112.48 124.58 113.23 122.81 113.03 Z" />
<path fill="#54604e" opacity="0.62" d=" M 120.78 115.75 C 121.00 114.73 121.59 113.99 122.53 113.53 C 123.09 115.23 122.51 115.97 120.78 115.75 Z" />
<path fill="#54604e" opacity="0.62" d=" M 114.70 121.50 C 115.22 120.58 116.00 120.02 117.04 119.84 C 117.17 121.56 116.39 122.11 114.70 121.50 Z" />
<path fill="#54604e" opacity="0.62" d=" M 99.65 130.48 C 100.22 129.60 101.02 129.07 102.05 128.90 C 102.13 130.64 101.32 131.16 99.65 130.48 Z" />
<path fill="#54604e" opacity="0.62" d=" M 91.25 131.35 L 92.16 131.20 C 91.96 131.69 91.57 132.65 91.37 133.14 L 90.83 132.35 L 91.25 131.35 Z" />
<path fill="#54604e" opacity="0.62" d=" M 109.19 152.13 C 110.17 148.12 108.58 143.47 110.90 139.90 C 111.35 143.18 110.33 147.63 114.32 148.88 C 112.23 150.23 110.26 151.81 107.98 152.85 C 104.85 153.62 101.95 151.86 99.35 150.36 C 102.54 151.38 105.82 152.15 109.19 152.13 Z" />
<path fill="#54604e" opacity="0.62" d=" M 125.34 157.17 C 128.20 155.42 125.71 160.49 125.34 157.17 Z" />
<path fill="#54604e" opacity="0.62" d=" M 136.76 163.60 C 137.02 162.55 137.74 161.96 138.89 161.84 C 139.08 163.48 138.37 164.07 136.76 163.60 Z" />
</g>
<g id="#2f322b3f">
<path fill="#2f322b" opacity="0.25" d=" M 139.02 55.51 C 140.07 52.84 141.68 50.30 144.27 48.90 C 142.72 51.26 141.00 53.50 139.02 55.51 Z" />
<path fill="#2f322b" opacity="0.25" d=" M 136.19 59.12 C 135.56 57.38 136.14 56.64 137.92 56.90 C 137.63 57.87 137.06 58.61 136.19 59.12 Z" />
<path fill="#2f322b" opacity="0.25" d=" M 84.88 61.09 C 86.69 60.80 87.29 61.52 86.66 63.26 C 85.81 62.75 85.21 62.02 84.88 61.09 Z" />
<path fill="#2f322b" opacity="0.25" d=" M 53.27 75.99 C 52.71 74.16 56.42 74.39 55.63 76.14 C 55.04 76.10 53.86 76.03 53.27 75.99 Z" />
<path fill="#2f322b" opacity="0.25" d=" M 150.32 84.22 L 151.25 84.27 C 150.94 84.69 150.31 85.55 150.00 85.97 L 149.67 85.10 L 150.32 84.22 Z" />
<path fill="#2f322b" opacity="0.25" d=" M 99.79 115.88 C 100.78 112.21 102.25 108.68 103.74 105.19 C 105.14 105.81 106.56 106.39 107.90 107.13 C 108.20 107.36 108.79 107.83 109.08 108.07 C 106.05 111.63 103.19 115.35 99.89 118.68 C 99.86 117.98 99.81 116.58 99.79 115.88 Z" />
<path fill="#2f322b" opacity="0.25" d=" M 93.11 147.06 L 93.97 146.73 L 94.86 147.35 L 94.84 148.27 C 94.41 147.97 93.54 147.36 93.11 147.06 Z" />
</g>
<g id="#4c825cff">
<path fill="#4c825c" opacity="1.00" d=" M 48.03 67.71 C 50.15 65.63 49.28 61.64 52.72 60.90 C 53.29 61.76 53.86 62.62 54.43 63.48 C 56.00 63.59 57.56 63.70 59.12 63.82 C 58.99 64.30 58.72 65.27 58.59 65.75 C 59.13 66.47 59.67 67.20 60.22 67.92 C 57.43 69.51 54.24 70.35 51.06 69.58 C 50.97 69.99 50.77 70.80 50.67 71.20 C 49.78 70.04 48.90 68.88 48.03 67.71 M 52.36 63.22 C 52.85 63.73 52.85 63.73 52.36 63.22 Z" />
<path fill="#4c825c" opacity="1.00" d=" M 76.39 71.07 C 77.80 70.66 78.29 71.15 77.87 72.54 C 76.46 72.95 75.97 72.46 76.39 71.07 Z" />
<path fill="#4c825c" opacity="1.00" d=" M 80.28 84.11 C 83.25 82.56 80.43 87.45 80.28 84.11 Z" />
<path fill="#4c825c" opacity="1.00" d=" M 151.03 91.76 C 152.86 89.60 154.46 87.22 156.74 85.48 C 156.28 86.59 155.81 87.69 155.34 88.79 C 156.13 89.62 156.93 90.44 157.72 91.27 C 157.57 92.20 157.43 93.14 157.29 94.08 C 157.70 94.30 158.53 94.73 158.94 94.95 C 159.42 93.66 159.90 92.37 160.39 91.08 C 161.19 91.53 162.00 91.99 162.80 92.44 C 161.71 93.66 160.62 94.88 159.51 96.08 C 157.35 96.53 155.27 97.27 153.32 98.31 C 154.40 98.22 155.48 98.13 156.55 98.03 C 156.82 99.98 157.11 101.94 157.39 103.89 C 159.19 104.02 160.99 104.16 162.79 104.29 C 161.96 104.96 161.12 105.62 160.29 106.29 C 160.40 107.51 160.51 108.74 160.62 109.96 C 161.83 110.76 163.05 111.56 164.25 112.37 C 164.36 114.31 164.63 116.23 165.00 118.13 C 164.70 120.21 164.37 122.29 163.98 124.36 C 162.70 131.65 158.88 138.07 155.41 144.48 L 155.03 144.67 C 151.45 146.60 147.62 147.96 143.63 148.71 C 145.00 148.87 146.38 149.03 147.75 149.20 C 146.64 150.22 145.53 151.23 144.43 152.25 C 145.54 152.94 146.65 153.62 147.76 154.31 C 144.77 156.75 142.51 160.30 138.89 161.84 C 137.74 161.96 137.02 162.55 136.76 163.60 L 136.55 164.34 C 129.53 168.88 121.91 172.37 113.95 174.91 C 105.44 176.85 96.78 178.01 88.05 178.05 C 62.05 178.63 36.04 178.23 10.05 177.78 C 10.21 175.49 10.31 173.18 10.83 170.94 C 12.67 163.06 13.61 155.02 15.08 147.07 C 16.44 142.33 16.30 137.35 17.55 132.59 C 19.81 123.50 20.87 114.21 22.94 105.08 C 27.25 108.45 31.07 112.55 36.10 114.89 C 37.74 115.97 39.74 115.65 41.59 115.56 C 41.54 112.85 41.02 110.11 41.55 107.42 C 41.67 107.04 41.92 106.27 42.04 105.88 L 42.44 104.73 C 43.62 113.81 40.84 123.77 45.79 132.08 C 48.25 136.90 53.56 139.11 58.47 140.56 C 57.89 142.66 57.38 144.77 57.02 146.92 C 66.84 147.89 76.74 147.23 86.60 147.40 C 86.42 145.82 86.26 144.25 86.10 142.67 C 88.43 144.15 90.87 145.44 93.11 147.06 C 93.54 147.36 94.41 147.97 94.84 148.27 C 96.46 148.65 97.89 149.59 99.35 150.36 C 101.95 151.86 104.85 153.62 107.98 152.85 C 110.26 151.81 112.23 150.23 114.32 148.88 C 110.33 147.63 111.35 143.18 110.90 139.90 C 114.22 139.56 116.93 137.44 119.46 135.45 C 128.58 128.02 133.69 116.60 135.24 105.12 C 137.30 100.89 141.00 97.61 143.86 93.88 C 143.52 94.72 143.18 95.57 142.86 96.42 C 144.83 96.17 146.80 95.93 148.78 95.71 C 148.30 95.21 147.83 94.71 147.37 94.22 C 147.57 93.43 147.77 92.64 147.97 91.86 C 148.96 91.93 150.31 92.91 151.03 91.76 M 154.25 92.32 C 154.76 92.80 154.76 92.80 154.25 92.32 M 146.30 104.34 C 146.78 104.85 146.78 104.85 146.30 104.34 M 147.51 108.39 C 148.79 109.59 150.14 110.71 151.57 111.74 C 152.35 110.13 153.15 108.52 153.96 106.92 C 151.81 107.40 149.65 107.88 147.51 108.39 M 141.23 122.27 C 141.74 122.75 141.74 122.75 141.23 122.27 M 34.20 133.26 C 34.73 133.73 34.73 133.73 34.20 133.26 M 42.24 140.22 C 42.76 140.69 42.76 140.69 42.24 140.22 M 53.23 145.27 C 52.77 146.64 53.25 147.15 54.66 146.81 C 55.12 145.43 54.64 144.91 53.23 145.27 M 34.27 152.27 C 34.75 152.78 34.75 152.78 34.27 152.27 M 39.29 152.28 C 39.82 152.74 39.82 152.74 39.29 152.28 M 72.53 154.10 C 72.67 155.49 73.34 155.75 74.54 154.87 C 74.41 153.47 73.74 153.22 72.53 154.10 M 125.34 157.17 C 125.71 160.49 128.20 155.42 125.34 157.17 M 44.30 158.30 C 44.82 158.78 44.82 158.78 44.30 158.30 M 40.20 159.26 C 40.69 159.76 40.69 159.76 40.20 159.26 M 101.29 167.05 C 101.23 170.39 104.34 165.68 101.29 167.05 M 19.29 169.26 C 19.77 169.77 19.77 169.77 19.29 169.26 M 29.17 170.32 C 27.44 173.18 32.50 170.69 29.17 170.32 M 96.34 170.06 C 96.42 173.40 99.34 168.58 96.34 170.06 M 70.25 174.08 C 70.33 177.42 73.25 172.59 70.25 174.08 Z" />
</g>
<g id="#dfa94aff">
<path fill="#dfa94a" opacity="1.00" d=" M 54.17 95.22 C 60.21 93.11 66.71 93.73 72.99 93.70 C 82.60 93.55 92.18 94.47 101.77 95.03 C 99.53 98.75 95.77 101.61 94.78 106.01 C 92.05 115.42 89.75 124.96 86.46 134.21 C 87.53 136.35 89.20 138.08 90.89 139.74 C 96.18 139.82 100.22 135.98 104.64 133.64 C 109.57 131.02 114.15 127.80 119.13 125.26 C 118.89 131.74 112.58 136.02 106.55 136.19 C 106.36 136.88 105.98 138.25 105.79 138.94 C 105.74 141.96 105.65 144.99 105.51 148.01 C 97.19 145.63 90.14 140.60 83.21 135.63 C 75.45 135.50 67.70 135.69 59.94 135.64 C 56.10 135.84 52.68 133.57 49.88 131.20 C 47.42 129.24 47.60 125.81 47.56 122.98 C 47.57 116.69 46.98 110.40 47.36 104.11 C 47.44 100.03 50.65 96.80 54.17 95.22 M 64.94 112.73 C 64.18 114.84 64.62 117.00 65.78 118.87 C 67.73 118.78 69.67 118.70 71.62 118.58 C 71.94 116.93 72.62 115.24 72.20 113.54 C 70.70 111.13 66.98 110.89 64.94 112.73 M 79.97 119.20 C 81.26 119.27 82.54 119.25 83.83 119.17 C 88.16 118.28 86.27 110.86 81.98 111.86 C 77.85 110.94 75.80 118.00 79.97 119.20 Z" />
</g>
<g id="#163a20fe">
<path fill="#163a20" opacity="1.00" d=" M 113.56 111.33 C 114.08 107.80 116.82 105.38 119.60 103.47 C 118.27 106.55 116.19 109.25 113.56 111.33 Z" />
<path fill="#163a20" opacity="1.00" d=" M 95.38 118.49 L 95.76 118.62 C 96.75 118.96 97.75 119.29 98.74 119.62 C 100.31 120.16 101.88 120.68 103.39 121.36 C 103.87 121.72 104.82 122.44 105.30 122.81 C 106.03 123.05 106.77 123.29 107.52 123.51 C 107.67 124.27 107.81 125.04 107.96 125.80 L 108.02 126.11 C 106.04 127.06 104.15 128.23 102.05 128.90 C 101.02 129.07 100.22 129.60 99.65 130.48 C 97.40 132.99 94.08 134.09 90.94 135.02 C 91.05 134.55 91.26 133.61 91.37 133.14 C 91.57 132.65 91.96 131.69 92.16 131.20 C 92.60 126.82 94.44 122.76 95.38 118.49 Z" />
</g>
<g id="#a98d58d5">
<path fill="#a98d58" opacity="0.84" d=" M 79.97 119.20 C 75.80 118.00 77.85 110.94 81.98 111.86 C 86.27 110.86 88.16 118.28 83.83 119.17 C 84.59 117.88 85.62 116.61 85.26 115.01 C 84.00 111.54 80.01 113.04 77.88 114.79 C 78.55 116.27 79.23 117.75 79.97 119.20 Z" />
</g>
</svg>
