<?xml version="1.0" encoding="UTF-8" ?>
<!DOCTYPE svg PUBLIC "-//W3C//DTD SVG 1.1//EN" "http://www.w3.org/Graphics/SVG/1.1/DTD/svg11.dtd">
<svg width="403pt" height="176pt" viewBox="0 0 403 176" version="1.1" xmlns="http://www.w3.org/2000/svg">
<g id="#2f4b369c">
<path fill="#2f4b36" opacity="0.61" d=" M 43.01 13.97 C 50.33 13.46 57.68 13.82 65.01 13.52 C 77.36 13.71 90.06 12.18 102.08 15.75 C 83.81 13.13 65.33 14.86 46.95 14.73 C 38.00 14.66 29.04 14.43 20.09 14.86 C 20.33 15.67 20.82 17.29 21.06 18.10 C 20.06 16.81 19.18 15.43 18.32 14.05 C 26.55 13.83 34.79 14.67 43.01 13.97 Z" />
</g>
<g id="#47805bff">
<path fill="#47805b" opacity="1.00" d=" M 46.95 14.73 C 65.33 14.86 83.81 13.13 102.08 15.75 C 113.70 18.14 124.49 23.99 133.36 31.79 C 135.17 33.23 136.61 35.05 137.93 36.93 C 131.60 44.37 125.58 52.06 119.29 59.53 C 112.05 50.18 100.67 44.80 89.03 43.77 C 84.36 43.66 79.69 43.77 75.01 43.75 C 73.51 43.88 71.69 43.37 70.52 44.62 C 69.48 46.05 69.05 47.80 68.39 49.41 C 54.69 49.44 41.05 48.37 27.33 48.55 C 27.46 47.01 27.65 45.46 28.03 43.96 C 28.88 40.69 29.49 37.36 30.31 34.09 C 27.20 28.77 24.04 23.49 21.06 18.10 C 20.82 17.29 20.33 15.67 20.09 14.86 C 29.04 14.43 38.00 14.66 46.95 14.73 M 50.55 32.13 C 50.76 33.50 51.46 33.74 52.65 32.86 C 52.43 31.49 51.73 31.24 50.55 32.13 M 68.28 32.22 C 68.82 32.68 68.82 32.68 68.28 32.22 M 100.29 38.08 C 100.57 41.41 103.21 36.44 100.29 38.08 M 81.21 39.33 C 81.72 39.81 81.72 39.81 81.21 39.33 M 35.30 42.26 C 35.82 42.74 35.82 42.74 35.30 42.26 Z" />
</g>
<g id="#69a27dff">
<path fill="#69a27d" opacity="1.00" d=" M 50.55 32.13 C 51.73 31.24 52.43 31.49 52.65 32.86 C 51.46 33.74 50.76 33.50 50.55 32.13 Z" />
</g>
<g id="#84ba96ff">
<path fill="#84ba96" opacity="1.00" d=" M 68.28 32.22 C 68.82 32.68 68.82 32.68 68.28 32.22 Z" />
</g>
<g id="#76a483ff">
<path fill="#76a483" opacity="1.00" d=" M 100.29 38.08 C 103.21 36.44 100.57 41.41 100.29 38.08 Z" />
</g>
<g id="#82ba95ff">
<path fill="#82ba95" opacity="1.00" d=" M 81.21 39.33 C 81.72 39.81 81.72 39.81 81.21 39.33 Z" />
</g>
<g id="#265336ff">
<path fill="#265336" opacity="1.00" d=" M 138.20 43.23 C 139.75 41.49 141.17 38.48 143.99 39.12 C 151.13 40.10 157.01 46.20 158.50 53.14 C 145.84 69.52 132.75 85.60 120.03 101.94 C 116.85 105.82 113.98 109.97 110.49 113.58 C 106.78 116.60 102.33 118.54 98.32 121.12 C 97.57 121.09 96.07 121.03 95.32 121.00 C 96.46 119.64 97.59 118.28 98.81 116.99 C 102.51 114.72 106.30 112.58 109.70 109.86 C 107.80 107.29 105.66 104.91 103.31 102.75 C 102.80 103.07 101.76 103.71 101.24 104.03 C 101.56 103.61 102.19 102.78 102.51 102.36 C 100.52 101.56 98.54 100.75 96.55 99.98 C 95.36 104.14 92.83 108.32 93.27 112.70 C 93.72 112.55 94.62 112.26 95.07 112.11 C 94.76 112.59 94.15 113.53 93.84 114.01 C 92.45 113.97 91.05 113.93 89.66 113.89 C 90.27 110.14 90.98 106.41 91.92 102.74 C 92.32 101.08 92.92 99.44 94.02 98.11 C 108.76 79.82 123.48 61.52 138.20 43.23 M 138.88 47.02 C 141.31 49.10 144.58 49.92 146.85 52.22 C 148.46 53.88 149.77 55.79 151.24 57.57 C 153.04 54.18 149.68 51.47 147.44 49.44 C 145.04 47.71 141.91 45.04 138.88 47.02 M 135.87 51.73 C 138.08 52.52 140.31 53.39 142.16 54.87 C 144.69 56.72 146.17 59.65 148.80 61.38 C 149.35 57.23 145.66 54.51 142.82 52.20 C 140.89 50.78 137.31 48.66 135.87 51.73 M 125.06 65.97 C 118.35 73.95 112.23 82.45 105.36 90.28 L 105.72 90.42 C 104.27 90.66 103.86 92.77 102.89 93.79 C 102.27 94.69 101.50 95.51 101.10 96.54 C 99.83 97.64 100.04 98.13 101.72 98.00 C 104.19 98.65 105.11 94.77 106.67 93.37 C 107.39 92.94 107.80 92.13 108.38 91.55 C 117.79 79.15 128.23 67.55 137.38 54.95 C 136.72 54.85 135.40 54.64 134.75 54.54 C 130.93 57.79 128.36 62.22 125.06 65.97 M 106.46 105.32 C 109.71 103.16 112.33 100.04 113.66 96.35 C 110.68 98.80 108.03 101.76 106.46 105.32 Z" />
</g>
<g id="#95c9a5ff">
<path fill="#95c9a5" opacity="1.00" d=" M 35.30 42.26 C 35.82 42.74 35.82 42.74 35.30 42.26 Z" />
</g>
<g id="#457d58ff">
<path fill="#457d58" opacity="1.00" d=" M 15.69 63.85 C 17.58 57.85 23.54 53.07 29.97 53.32 C 44.45 53.57 58.97 53.39 73.42 54.46 C 79.18 56.19 83.62 61.95 83.72 67.99 C 83.88 73.76 83.98 79.53 83.88 85.31 C 74.94 85.23 65.97 83.57 57.02 84.91 C 53.47 85.54 49.63 84.83 46.37 86.70 C 42.97 88.52 39.82 91.55 39.07 95.48 C 36.91 95.56 34.75 95.62 32.60 95.68 C 32.07 98.97 32.44 102.29 32.87 105.57 C 27.75 102.45 23.25 98.41 19.70 93.57 C 17.41 90.12 15.27 86.27 15.47 81.99 C 15.63 75.94 15.42 69.89 15.69 63.85 M 36.42 58.70 C 37.96 58.14 39.11 58.85 40.01 60.03 C 40.88 59.56 41.75 59.10 42.62 58.63 C 41.89 57.39 41.16 56.14 40.43 54.90 C 38.68 55.69 37.26 56.95 36.42 58.70 M 43.88 60.17 C 42.15 60.23 41.05 61.22 40.60 62.88 C 42.15 63.11 43.70 63.34 45.24 63.57 C 45.82 64.28 46.40 64.99 46.97 65.70 C 48.76 65.80 50.53 66.06 52.28 66.41 C 54.91 63.51 59.36 62.78 61.01 58.97 C 58.47 59.51 56.02 60.41 53.65 61.46 C 52.45 59.83 50.56 59.18 48.68 58.68 C 50.19 60.41 51.65 62.17 53.06 63.98 C 51.76 63.42 50.47 62.85 49.18 62.28 C 48.55 62.76 47.93 63.23 47.31 63.72 C 47.85 61.55 48.12 59.33 48.25 57.11 C 47.34 57.20 46.42 57.30 45.51 57.39 C 44.96 58.31 44.41 59.23 43.88 60.17 M 35.21 58.18 C 35.68 58.70 35.68 58.70 35.21 58.18 M 33.76 61.09 C 35.60 62.53 37.81 63.23 40.14 63.11 C 40.35 59.77 35.82 59.50 33.76 61.09 M 36.16 64.24 C 35.62 65.87 36.17 66.40 37.81 65.84 C 38.34 64.21 37.79 63.68 36.16 64.24 M 32.21 73.10 C 32.34 74.45 32.48 75.80 32.63 77.14 C 33.81 77.56 34.99 77.97 36.17 78.40 C 37.31 77.79 38.51 77.26 39.52 76.45 C 39.68 75.15 39.62 73.84 39.61 72.53 C 37.19 71.10 34.35 71.16 32.21 73.10 M 46.61 72.48 C 44.87 73.75 46.25 75.77 46.67 77.35 C 48.66 77.70 51.15 78.48 52.76 76.76 C 54.52 75.33 53.18 73.06 52.30 71.56 C 50.39 71.28 47.94 70.58 46.61 72.48 M 60.81 71.55 C 60.27 72.75 59.72 73.94 59.17 75.14 C 60.50 76.56 61.90 78.61 64.18 78.17 C 66.14 77.45 67.65 75.84 67.61 73.64 C 66.85 72.89 66.09 72.14 65.34 71.38 C 63.83 71.43 62.32 71.49 60.81 71.55 Z" />
</g>
<g id="#5f916eff">
<path fill="#5f916e" opacity="1.00" d=" M 36.42 58.70 C 37.26 56.95 38.68 55.69 40.43 54.90 C 41.16 56.14 41.89 57.39 42.62 58.63 C 41.75 59.10 40.88 59.56 40.01 60.03 C 39.11 58.85 37.96 58.14 36.42 58.70 Z" />
</g>
<g id="#1a302286">
<path fill="#1a3022" opacity="0.53" d=" M 125.06 65.97 C 128.36 62.22 130.93 57.79 134.75 54.54 C 135.40 54.64 136.72 54.85 137.38 54.95 C 128.23 67.55 117.79 79.15 108.38 91.55 C 107.71 91.27 106.38 90.70 105.72 90.42 L 105.36 90.28 C 112.23 82.45 118.35 73.95 125.06 65.97 Z" />
</g>
<g id="#cc5727ff">
<path fill="#cc5727" opacity="1.00" d=" M 313.41 60.97 C 313.13 57.25 317.24 54.25 320.77 55.18 C 322.96 55.43 324.18 57.43 325.49 58.96 C 325.50 60.40 325.53 61.85 325.57 63.29 C 324.19 65.29 322.50 67.42 319.88 67.67 C 316.45 67.68 312.95 64.58 313.41 60.97 Z" />
</g>
<g id="#568563ff">
<path fill="#568563" opacity="1.00" d=" M 43.88 60.17 C 44.41 59.23 44.96 58.31 45.51 57.39 C 46.42 57.30 47.34 57.20 48.25 57.11 C 48.12 59.33 47.85 61.55 47.31 63.72 C 47.93 63.23 48.55 62.76 49.18 62.28 C 50.47 62.85 51.76 63.42 53.06 63.98 C 51.65 62.17 50.19 60.41 48.68 58.68 C 50.56 59.18 52.45 59.83 53.65 61.46 C 56.02 60.41 58.47 59.51 61.01 58.97 C 59.36 62.78 54.91 63.51 52.28 66.41 C 50.53 66.06 48.76 65.80 46.97 65.70 C 46.40 64.99 45.82 64.28 45.24 63.57 C 43.70 63.34 42.15 63.11 40.60 62.88 C 41.05 61.22 42.15 60.23 43.88 60.17 Z" />
</g>
<g id="#78ae8aff">
<path fill="#78ae8a" opacity="1.00" d=" M 35.21 58.18 C 35.68 58.70 35.68 58.70 35.21 58.18 Z" />
</g>
<g id="#609370ff">
<path fill="#609370" opacity="1.00" d=" M 33.76 61.09 C 35.82 59.50 40.35 59.77 40.14 63.11 C 37.81 63.23 35.60 62.53 33.76 61.09 Z" />
</g>
<g id="#cf572aff">
<path fill="#cf572a" opacity="1.00" d=" M 172.29 61.22 C 178.52 61.30 184.76 61.21 190.99 61.30 C 197.35 61.35 204.00 63.85 207.96 69.00 C 213.01 75.37 213.32 84.41 210.67 91.83 C 207.47 99.43 199.02 103.63 191.06 103.59 C 184.83 103.51 178.59 103.64 172.36 103.60 C 172.33 89.47 172.29 75.34 172.29 61.22 M 182.52 69.66 C 182.44 78.28 182.75 86.90 182.65 95.52 C 188.79 95.77 196.28 95.59 200.22 90.07 C 203.51 84.39 202.55 75.92 197.01 71.95 C 192.77 69.07 187.38 69.63 182.52 69.66 Z" />
</g>
<g id="#629874ff">
<path fill="#629874" opacity="1.00" d=" M 36.16 64.24 C 37.79 63.68 38.34 64.21 37.81 65.84 C 36.17 66.40 35.62 65.87 36.16 64.24 Z" />
</g>
<g id="#3d724dff">
<path fill="#3d724d" opacity="1.00" d=" M 138.85 85.09 C 144.38 77.68 150.28 70.52 156.31 63.51 C 157.12 67.39 158.10 71.24 158.56 75.18 C 157.11 78.07 154.17 79.61 151.68 81.45 C 153.17 81.63 154.66 81.83 156.16 82.03 C 154.42 84.78 151.55 86.15 148.46 86.79 C 147.60 85.57 146.74 84.34 145.88 83.12 C 143.51 83.70 141.15 84.29 138.85 85.09 Z" />
</g>
<g id="#cf5628ff">
<path fill="#cf5628" opacity="1.00" d=" M 215.55 82.81 C 218.64 73.25 230.05 69.12 239.20 71.79 C 245.65 73.65 250.27 79.37 251.32 85.92 C 251.46 90.36 250.85 95.23 247.69 98.62 C 245.44 101.37 242.13 102.84 238.89 104.05 C 235.89 104.57 232.85 104.45 229.83 104.29 C 223.73 102.84 217.99 99.14 215.62 93.12 C 215.36 89.69 215.33 86.24 215.55 82.81 M 226.95 82.20 C 223.93 87.43 225.79 95.63 232.14 97.28 C 232.87 97.28 234.35 97.27 235.09 97.26 C 241.83 95.29 243.00 86.05 238.95 81.07 C 235.69 77.67 229.48 78.18 226.95 82.20 Z" />
</g>
<g id="#cd562aff">
<path fill="#cd562a" opacity="1.00" d=" M 264.83 75.25 C 269.13 70.65 276.07 70.17 281.62 72.59 C 282.84 73.98 284.02 75.42 285.15 76.89 C 287.72 73.51 291.39 70.64 295.92 71.32 C 301.79 70.73 307.67 75.09 308.22 81.07 C 308.69 88.55 308.30 96.07 308.44 103.57 C 305.12 103.56 301.81 103.54 298.49 103.54 C 298.31 97.34 298.72 91.12 298.36 84.92 C 298.27 82.08 295.76 79.72 292.94 79.68 C 290.26 79.95 287.42 82.03 287.40 84.94 C 287.17 91.14 287.35 97.34 287.36 103.54 C 283.97 103.54 280.57 103.52 277.18 103.54 C 277.10 97.00 277.33 90.45 277.04 83.92 C 276.45 79.75 271.08 79.05 267.87 80.61 C 267.13 81.62 266.40 82.63 265.67 83.65 C 265.71 90.28 265.69 96.92 265.69 103.55 C 262.26 103.59 258.83 103.55 255.41 103.56 C 255.52 92.95 255.26 82.34 255.49 71.74 C 258.53 71.75 261.57 71.73 264.61 71.69 C 264.68 72.87 264.75 74.06 264.83 75.25 Z" />
</g>
<g id="#cb582aff">
<path fill="#cb582a" opacity="1.00" d=" M 314.35 103.55 C 314.44 92.94 314.23 82.33 314.46 71.72 C 317.82 71.74 321.18 71.74 324.55 71.72 C 324.84 82.35 324.65 92.98 324.66 103.61 C 321.22 103.58 317.78 103.56 314.35 103.55 Z" />
</g>
<g id="#cf5729ff">
<path fill="#cf5729" opacity="1.00" d=" M 331.18 72.28 C 334.34 72.33 337.51 71.56 340.63 72.26 C 340.63 73.18 340.63 75.03 340.62 75.95 C 343.45 72.08 348.31 70.77 352.90 71.42 C 358.83 71.53 363.25 77.41 363.30 83.03 C 363.32 89.86 363.23 96.70 363.34 103.53 C 359.97 103.54 356.62 103.53 353.26 103.57 C 353.05 96.51 353.76 89.38 352.50 82.38 C 351.89 81.73 351.28 81.08 350.68 80.43 C 348.40 80.23 346.11 80.28 343.85 80.57 C 342.96 81.93 341.32 83.10 341.52 84.91 C 341.45 91.13 341.53 97.34 341.51 103.55 C 338.07 103.55 334.64 103.54 331.21 103.57 C 331.14 93.14 331.25 82.71 331.18 72.28 Z" />
</g>
<g id="#ce5628ff">
<path fill="#ce5628" opacity="1.00" d=" M 376.52 72.83 C 380.79 70.89 385.57 71.29 390.10 71.71 C 392.41 72.66 394.84 73.63 396.57 75.51 C 398.81 77.74 399.47 80.94 400.29 83.87 C 400.32 86.00 400.35 88.13 400.39 90.26 C 392.88 90.19 385.37 90.24 377.87 90.33 C 378.36 93.91 381.18 97.25 384.96 97.37 C 388.30 97.93 391.46 96.42 393.90 94.26 C 395.60 96.16 398.88 97.32 398.88 100.24 C 396.09 101.87 393.35 103.83 390.07 104.32 C 386.68 104.78 383.26 104.52 379.87 104.37 C 376.46 103.00 372.72 101.60 370.65 98.37 C 365.07 90.23 367.43 77.39 376.52 72.83 M 377.84 85.23 C 382.25 85.28 386.67 85.24 391.08 85.30 C 390.79 83.42 390.75 81.25 389.21 79.88 C 387.20 78.42 384.39 78.40 382.08 79.02 C 379.42 79.95 378.63 82.84 377.84 85.23 Z" />
</g>
<g id="#447955ff">
<path fill="#447955" opacity="1.00" d=" M 158.56 75.18 C 160.01 87.43 159.51 99.90 156.90 111.96 C 155.20 118.84 153.25 125.82 149.50 131.90 C 149.32 131.34 148.97 130.22 148.79 129.66 C 149.41 128.61 150.10 127.60 150.77 126.59 C 149.96 126.26 149.15 125.94 148.34 125.62 C 149.57 124.51 153.64 123.69 151.38 121.67 C 148.11 121.17 144.78 121.17 141.49 120.76 C 141.31 119.77 141.14 118.79 140.96 117.80 C 139.87 117.95 138.77 118.13 137.68 118.29 C 137.70 117.06 137.72 115.84 137.76 114.61 C 139.13 114.99 140.50 115.38 141.87 115.78 C 141.02 114.44 140.18 113.10 139.36 111.74 C 140.70 112.52 142.63 112.82 143.26 114.41 C 143.16 115.84 142.51 117.17 142.14 118.54 C 143.75 119.07 145.35 119.70 147.04 119.93 C 148.46 119.32 149.65 118.30 150.91 117.43 C 148.85 116.86 146.79 116.27 144.76 115.63 C 147.90 114.88 151.05 114.21 154.20 113.52 C 152.88 113.32 151.56 113.12 150.24 112.92 C 151.70 111.99 153.38 110.55 152.30 108.64 C 149.86 106.09 146.15 106.12 142.89 105.88 C 142.77 105.69 142.52 105.30 142.40 105.10 C 143.29 104.74 144.18 104.37 145.08 104.01 C 144.46 102.47 143.85 100.94 143.23 99.41 C 140.90 98.73 138.57 98.06 136.23 97.45 C 136.82 96.69 137.40 95.93 137.98 95.17 C 138.93 94.48 139.88 93.79 140.84 93.12 C 140.31 92.42 139.79 91.72 139.26 91.02 C 137.88 92.71 136.21 94.14 134.44 95.41 C 135.04 96.09 135.63 96.77 136.23 97.45 C 135.61 97.28 134.36 96.94 133.74 96.77 C 135.84 99.26 137.87 101.81 139.71 104.51 C 138.34 104.32 136.97 104.13 135.61 103.96 C 135.66 103.44 135.75 102.42 135.80 101.91 C 135.24 101.52 134.11 100.73 133.55 100.34 C 133.09 101.93 132.61 103.51 132.20 105.12 C 131.27 104.53 130.33 103.97 129.38 103.42 C 128.71 104.71 128.03 106.00 127.36 107.29 C 127.20 105.94 127.06 104.59 126.93 103.24 C 127.02 101.81 127.35 100.40 127.63 99.00 C 131.48 94.49 134.80 89.46 138.85 85.09 C 141.15 84.29 143.51 83.70 145.88 83.12 C 146.74 84.34 147.60 85.57 148.46 86.79 C 151.55 86.15 154.42 84.78 156.16 82.03 C 154.66 81.83 153.17 81.63 151.68 81.45 C 154.17 79.61 157.11 78.07 158.56 75.18 M 144.28 101.00 C 146.68 102.51 149.49 103.08 152.14 104.01 C 152.11 103.29 152.04 101.85 152.01 101.14 C 151.53 101.35 150.58 101.77 150.10 101.98 C 148.19 101.51 146.24 101.18 144.28 101.00 Z" />
</g>
<g id="#e5ac47ff">
<path fill="#e5ac47" opacity="1.00" d=" M 49.41 90.40 C 54.70 88.35 60.46 89.59 65.98 89.27 C 75.87 88.99 85.73 89.51 95.58 90.39 C 95.11 90.69 94.19 91.30 93.73 91.60 C 92.10 93.92 90.04 95.95 88.84 98.54 C 87.62 101.91 86.92 105.44 85.85 108.87 C 84.15 115.61 81.46 122.13 80.51 129.04 C 81.76 130.40 82.93 131.83 84.05 133.31 L 84.54 133.92 C 81.69 132.38 79.54 129.34 76.13 129.02 C 68.73 128.30 61.29 129.37 53.87 129.04 C 49.22 128.34 44.47 125.64 42.69 121.08 C 42.70 114.37 42.51 107.67 42.37 100.97 C 42.03 96.37 45.20 92.03 49.41 90.40 M 59.96 107.05 C 57.86 108.12 58.60 110.67 59.59 112.26 C 60.19 112.53 61.39 113.07 62.00 113.34 C 63.03 112.97 64.07 112.60 65.11 112.23 C 65.42 111.75 66.05 110.78 66.37 110.30 C 66.35 109.94 66.31 109.22 66.29 108.86 C 65.99 108.35 65.40 107.32 65.10 106.81 C 63.40 106.30 61.40 105.53 59.96 107.05 M 72.96 107.81 C 72.73 108.36 72.29 109.46 72.07 110.01 C 72.22 110.61 72.53 111.79 72.68 112.38 C 74.82 113.79 77.25 113.26 79.42 112.24 C 80.09 109.48 78.66 107.45 76.11 106.51 C 75.06 106.95 74.01 107.38 72.96 107.81 Z" />
</g>
<g id="#455e4bbd">
<path fill="#455e4b" opacity="0.74" d=" M 102.89 93.79 C 103.86 92.77 104.27 90.66 105.72 90.42 C 106.38 90.70 107.71 91.27 108.38 91.55 C 107.80 92.13 107.39 92.94 106.67 93.37 C 105.73 93.48 103.84 93.69 102.89 93.79 Z" />
</g>
<g id="#5d8966ff">
<path fill="#5d8966" opacity="1.00" d=" M 139.26 91.02 C 139.79 91.72 140.31 92.42 140.84 93.12 C 139.88 93.79 138.93 94.48 137.98 95.17 C 137.40 95.93 136.82 96.69 136.23 97.45 C 135.63 96.77 135.04 96.09 134.44 95.41 C 136.21 94.14 137.88 92.71 139.26 91.02 Z" />
</g>
<g id="#7f9e7ff4">
<path fill="#7f9e7f" opacity="0.96" d=" M 101.10 96.54 C 101.50 95.51 102.27 94.69 102.89 93.79 C 103.84 93.69 105.73 93.48 106.67 93.37 C 105.11 94.77 104.19 98.65 101.72 98.00 C 101.57 97.64 101.26 96.91 101.10 96.54 Z" />
</g>
<g id="#4b614eb4">
<path fill="#4b614e" opacity="0.71" d=" M 101.72 98.00 C 100.04 98.13 99.83 97.64 101.10 96.54 C 101.26 96.91 101.57 97.64 101.72 98.00 Z" />
</g>
<g id="#0e3519ff">
<path fill="#0e3519" opacity="1.00" d=" M 106.46 105.32 C 108.03 101.76 110.68 98.80 113.66 96.35 C 112.33 100.04 109.71 103.16 106.46 105.32 Z" />
</g>
<g id="#557f5eff">
<path fill="#557f5e" opacity="1.00" d=" M 133.74 96.77 C 134.36 96.94 135.61 97.28 136.23 97.45 C 138.57 98.06 140.90 98.73 143.23 99.41 C 143.85 100.94 144.46 102.47 145.08 104.01 C 144.18 104.37 143.29 104.74 142.40 105.10 C 142.52 105.30 142.77 105.69 142.89 105.88 C 141.55 107.39 140.20 109.09 138.24 109.81 C 137.27 109.30 136.38 108.66 135.41 108.16 C 135.94 107.08 136.46 106.00 137.01 104.93 C 134.69 106.90 132.01 108.79 128.80 107.90 C 130.13 107.36 131.47 106.82 132.80 106.27 C 132.65 105.98 132.35 105.41 132.20 105.12 C 132.61 103.51 133.09 101.93 133.55 100.34 C 134.11 100.73 135.24 101.52 135.80 101.91 C 135.75 102.42 135.66 103.44 135.61 103.96 C 136.97 104.13 138.34 104.32 139.71 104.51 C 137.87 101.81 135.84 99.26 133.74 96.77 Z" />
</g>
<g id="#4a805bff">
<path fill="#4a805b" opacity="1.00" d=" M 16.17 114.02 C 16.91 109.22 18.18 104.52 18.92 99.72 C 23.89 104.42 29.38 109.77 36.47 110.62 C 37.07 106.83 35.62 102.96 36.91 99.26 C 39.02 103.57 38.58 108.46 37.75 113.02 C 38.03 117.27 38.43 121.73 40.47 125.56 C 43.06 130.04 48.06 132.32 52.85 133.63 C 52.40 135.58 51.95 137.53 51.52 139.48 C 61.13 141.48 71.08 139.72 80.83 140.28 C 80.38 138.77 79.94 137.26 79.50 135.74 C 86.56 139.84 93.78 145.14 102.24 145.35 C 103.13 141.65 103.38 137.85 103.22 134.06 C 106.62 132.20 110.38 130.87 113.33 128.28 C 120.46 121.69 125.03 112.71 126.93 103.24 C 127.06 104.59 127.20 105.94 127.36 107.29 C 128.03 106.00 128.71 104.71 129.38 103.42 C 130.33 103.97 131.27 104.53 132.20 105.12 C 132.35 105.41 132.65 105.98 132.80 106.27 C 131.47 106.82 130.13 107.36 128.80 107.90 C 132.01 108.79 134.69 106.90 137.01 104.93 C 136.46 106.00 135.94 107.08 135.41 108.16 C 136.38 108.66 137.27 109.30 138.24 109.81 C 140.20 109.09 141.55 107.39 142.89 105.88 C 146.15 106.12 149.86 106.09 152.30 108.64 C 153.38 110.55 151.70 111.99 150.24 112.92 C 151.56 113.12 152.88 113.32 154.20 113.52 C 151.05 114.21 147.90 114.88 144.76 115.63 C 146.79 116.27 148.85 116.86 150.91 117.43 C 149.65 118.30 148.46 119.32 147.04 119.93 C 145.35 119.70 143.75 119.07 142.14 118.54 C 142.51 117.17 143.16 115.84 143.26 114.41 C 142.63 112.82 140.70 112.52 139.36 111.74 C 140.18 113.10 141.02 114.44 141.87 115.78 C 140.50 115.38 139.13 114.99 137.76 114.61 C 137.72 115.84 137.70 117.06 137.68 118.29 C 138.77 118.13 139.87 117.95 140.96 117.80 C 141.14 118.79 141.31 119.77 141.49 120.76 C 144.78 121.17 148.11 121.17 151.38 121.67 C 153.64 123.69 149.57 124.51 148.34 125.62 C 149.15 125.94 149.96 126.26 150.77 126.59 C 150.10 127.60 149.41 128.61 148.79 129.66 C 148.97 130.22 149.32 131.34 149.50 131.90 L 149.61 132.25 C 141.69 146.77 128.72 158.59 113.06 164.14 C 103.23 166.90 93.24 169.20 82.98 169.26 C 57.64 169.32 32.29 169.64 6.96 169.09 C 7.58 163.57 8.92 158.14 9.17 152.58 C 11.19 139.68 13.70 126.85 16.17 114.02 M 20.31 113.23 C 20.80 113.73 20.80 113.73 20.31 113.23 M 133.42 125.15 C 133.80 128.44 136.30 123.42 133.42 125.15 M 38.38 128.09 C 38.52 131.40 41.38 126.56 38.38 128.09 M 37.27 133.05 C 37.46 136.37 40.24 131.48 37.27 133.05 M 29.26 144.04 C 29.46 147.36 32.22 142.46 29.26 144.04 M 56.30 144.22 C 56.80 144.71 56.80 144.71 56.30 144.22 M 116.22 144.09 C 116.42 147.40 119.19 142.52 116.22 144.09 M 127.19 145.24 C 127.52 148.55 130.08 143.55 127.19 145.24 M 13.48 149.16 C 13.37 150.58 15.80 150.63 16.50 149.75 C 16.60 148.35 14.17 148.26 13.48 149.16 M 59.27 149.31 C 59.76 149.81 59.76 149.81 59.27 149.31 M 112.49 152.35 C 112.47 153.77 114.97 153.57 115.70 152.76 C 115.71 151.33 113.21 151.54 112.49 152.35 M 29.26 153.24 C 29.73 153.76 29.73 153.76 29.26 153.24 M 53.34 153.09 C 53.61 156.40 56.28 151.46 53.34 153.09 M 94.47 159.01 C 94.50 162.34 97.51 157.59 94.47 159.01 Z" />
</g>
<g id="#090d0a1d">
<path fill="#090d0a" opacity="0.11" d=" M 96.55 99.98 C 98.54 100.75 100.52 101.56 102.51 102.36 C 102.19 102.78 101.56 103.61 101.24 104.03 C 99.11 106.66 96.86 109.22 95.07 112.11 C 94.62 112.26 93.72 112.55 93.27 112.70 C 92.83 108.32 95.36 104.14 96.55 99.98 Z" />
</g>
<g id="#5c8f6bff">
<path fill="#5c8f6b" opacity="1.00" d=" M 144.28 101.00 C 146.24 101.18 148.19 101.51 150.10 101.98 C 150.58 101.77 151.53 101.35 152.01 101.14 C 152.04 101.85 152.11 103.29 152.14 104.01 C 149.49 103.08 146.68 102.51 144.28 101.00 Z" />
</g>
<g id="#1a3924ff">
<path fill="#1a3924" opacity="1.00" d=" M 86.20 121.58 C 88.48 115.41 89.87 108.98 91.92 102.74 C 90.98 106.41 90.27 110.14 89.66 113.89 C 91.05 113.93 92.45 113.97 93.84 114.01 C 95.57 114.88 97.20 115.92 98.81 116.99 C 97.59 118.28 96.46 119.64 95.32 121.00 C 96.07 121.03 97.57 121.09 98.32 121.12 C 96.13 122.47 93.92 123.80 91.68 125.06 C 89.93 123.78 88.11 122.60 86.20 121.58 Z" />
</g>
<g id="#aab49dff">
<path fill="#aab49d" opacity="1.00" d=" M 103.31 102.75 C 105.66 104.91 107.80 107.29 109.70 109.86 C 106.30 112.58 102.51 114.72 98.81 116.99 C 97.20 115.92 95.57 114.88 93.84 114.01 C 94.15 113.53 94.76 112.59 95.07 112.11 C 96.86 109.22 99.11 106.66 101.24 104.03 C 101.76 103.71 102.80 103.07 103.31 102.75 Z" />
</g>
<g id="#cd5a2bff">
<path fill="#cd5a2b" opacity="1.00" d=" M 292.13 114.13 C 291.45 109.72 296.09 106.76 300.07 107.41 C 303.44 109.41 305.61 114.26 302.54 117.48 C 299.57 121.72 292.18 119.16 292.13 114.13 Z" />
</g>
<g id="#d05729ff">
<path fill="#d05729" opacity="1.00" d=" M 169.09 154.51 C 174.15 140.13 179.55 125.86 184.72 111.51 C 188.58 111.51 192.44 111.50 196.30 111.47 C 202.06 125.81 207.82 140.15 213.28 154.61 C 209.75 154.62 206.23 154.59 202.71 154.54 C 201.68 151.57 200.54 148.63 199.37 145.71 C 193.68 145.77 187.99 145.88 182.31 145.69 C 181.18 148.61 180.19 151.59 179.29 154.60 C 175.89 154.61 172.49 154.55 169.09 154.51 M 190.41 121.82 C 188.42 127.36 186.59 132.97 184.35 138.42 C 188.49 138.44 192.63 138.49 196.77 138.44 C 195.07 132.75 192.65 127.31 190.41 121.82 Z" />
</g>
<g id="#8cbe9bff">
<path fill="#8cbe9b" opacity="1.00" d=" M 20.31 113.23 C 20.80 113.73 20.80 113.73 20.31 113.23 Z" />
</g>
<g id="#de9a3fff">
<path fill="#de9a3f" opacity="1.00" d=" M 98.20 126.95 C 102.91 124.44 107.30 121.38 112.04 118.92 C 111.23 125.01 105.62 129.50 99.55 129.43 C 99.05 133.28 98.48 137.13 98.59 141.03 C 93.75 139.02 88.84 136.96 84.54 133.92 L 84.05 133.31 C 89.54 133.34 93.60 129.31 98.20 126.95 Z" />
</g>
<g id="#070b03ff">
<path fill="#070b03" opacity="1.00" d=" M 86.20 121.58 C 88.11 122.60 89.93 123.78 91.68 125.06 C 89.49 126.51 87.24 127.94 84.65 128.54 C 84.84 127.65 85.22 125.86 85.41 124.97 C 85.62 124.48 86.04 123.51 86.26 123.02 L 86.20 121.58 Z" />
</g>
<g id="#cf5728ff">
<path fill="#cf5728" opacity="1.00" d=" M 217.84 126.79 C 223.03 120.81 233.97 120.30 238.90 126.88 C 238.83 126.03 238.70 124.33 238.64 123.48 C 241.95 123.38 245.27 123.35 248.60 123.36 C 248.61 138.42 248.63 153.49 248.53 168.56 C 245.23 168.58 241.92 168.59 238.62 168.54 C 238.66 162.72 238.61 156.89 238.75 151.07 C 235.13 155.20 229.30 156.23 224.12 155.01 C 212.67 151.53 209.82 134.96 217.84 126.79 M 227.49 131.70 C 223.54 134.82 223.39 141.02 225.93 145.07 C 227.42 147.56 230.53 148.13 233.18 148.47 C 238.29 146.37 240.79 140.23 238.64 135.14 C 237.32 130.58 231.18 128.92 227.49 131.70 Z" />
</g>
<g id="#2327245c">
<path fill="#232724" opacity="0.36" d=" M 85.33 123.21 L 86.26 123.02 C 86.04 123.51 85.62 124.48 85.41 124.97 L 84.90 124.21 L 85.33 123.21 Z" />
</g>
<g id="#cd5628ff">
<path fill="#cd5628" opacity="1.00" d=" M 254.56 123.39 C 257.95 123.35 261.34 123.35 264.74 123.37 C 264.78 129.60 264.68 135.84 264.82 142.07 C 264.75 143.95 265.48 145.86 267.06 146.96 C 269.29 147.78 271.74 147.36 274.08 147.47 C 275.34 146.25 276.92 145.04 276.91 143.09 C 277.40 136.51 276.96 129.88 277.12 123.28 C 280.32 123.32 283.53 123.36 286.73 123.35 C 286.68 133.78 286.74 144.20 286.72 154.62 C 283.57 154.60 280.43 154.59 277.28 154.64 C 277.25 153.97 277.18 152.64 277.15 151.98 C 274.90 153.29 272.57 154.46 270.12 155.34 C 267.46 155.49 264.79 155.42 262.15 155.08 C 258.48 153.41 254.58 150.40 254.57 145.98 C 254.44 138.45 254.54 130.92 254.56 123.39 Z" />
</g>
<g id="#cd5a2dff">
<path fill="#cd5a2d" opacity="1.00" d=" M 293.31 123.30 C 296.63 123.33 299.95 123.32 303.27 123.36 C 303.25 133.74 303.24 144.12 303.27 154.51 C 299.93 154.54 296.60 154.56 293.27 154.62 C 293.30 144.18 293.27 133.74 293.31 123.30 Z" />
</g>
<g id="#78aa87ff">
<path fill="#78aa87" opacity="1.00" d=" M 133.42 125.15 C 136.30 123.42 133.80 128.44 133.42 125.15 Z" />
</g>
<g id="#7cad8bff">
<path fill="#7cad8b" opacity="1.00" d=" M 38.38 128.09 C 41.38 126.56 38.52 131.40 38.38 128.09 Z" />
</g>
<g id="#79ad87ff">
<path fill="#79ad87" opacity="1.00" d=" M 37.27 133.05 C 40.24 131.48 37.46 136.37 37.27 133.05 Z" />
</g>
<g id="#7aab89ff">
<path fill="#7aab89" opacity="1.00" d=" M 29.26 144.04 C 32.22 142.46 29.46 147.36 29.26 144.04 Z" />
</g>
<g id="#8fc19eff">
<path fill="#8fc19e" opacity="1.00" d=" M 56.30 144.22 C 56.80 144.71 56.80 144.71 56.30 144.22 Z" />
</g>
<g id="#7db18dff">
<path fill="#7db18d" opacity="1.00" d=" M 116.22 144.09 C 119.19 142.52 116.42 147.40 116.22 144.09 Z" />
</g>
<g id="#75a583ff">
<path fill="#75a583" opacity="1.00" d=" M 127.19 145.24 C 130.08 143.55 127.52 148.55 127.19 145.24 Z" />
</g>
<g id="#7aa786ff">
<path fill="#7aa786" opacity="1.00" d=" M 13.48 149.16 C 14.17 148.26 16.60 148.35 16.50 149.75 C 15.80 150.63 13.37 150.58 13.48 149.16 Z" />
</g>
<g id="#82b692ff">
<path fill="#82b692" opacity="1.00" d=" M 59.27 149.31 C 59.76 149.81 59.76 149.81 59.27 149.31 Z" />
</g>
<g id="#6ba07cff">
<path fill="#6ba07c" opacity="1.00" d=" M 112.49 152.35 C 113.21 151.54 115.71 151.33 115.70 152.76 C 114.97 153.57 112.47 153.77 112.49 152.35 Z" />
</g>
<g id="#344a389a">
<path fill="#344a38" opacity="0.60" d=" M 6.01 169.75 C 6.95 164.02 6.95 158.00 9.17 152.58 C 8.92 158.14 7.58 163.57 6.96 169.09 C 32.29 169.64 57.64 169.32 82.98 169.26 C 93.24 169.20 103.23 166.90 113.06 164.14 C 106.17 168.02 98.12 168.35 90.48 169.37 C 84.02 170.29 77.50 169.81 71.01 169.97 C 49.34 169.52 27.67 170.29 6.01 169.75 Z" />
</g>
<g id="#88bc98ff">
<path fill="#88bc98" opacity="1.00" d=" M 29.26 153.24 C 29.73 153.76 29.73 153.76 29.26 153.24 Z" />
</g>
<g id="#73a884ff">
<path fill="#73a884" opacity="1.00" d=" M 53.34 153.09 C 56.28 151.46 53.61 156.40 53.34 153.09 Z" />
</g>
<g id="#6ea480ff">
<path fill="#6ea480" opacity="1.00" d=" M 94.47 159.01 C 97.51 157.59 94.50 162.34 94.47 159.01 Z" />
</g>
</svg>
