<?xml version="1.0" encoding="UTF-8" ?>
<!DOCTYPE svg PUBLIC "-//W3C//DTD SVG 1.1//EN" "http://www.w3.org/Graphics/SVG/1.1/DTD/svg11.dtd">
<svg width="180pt" height="195pt" viewBox="0 0 180 195" version="1.1" xmlns="http://www.w3.org/2000/svg">
<g id="#f1f2e0ff">
<path fill="#f1f2e0" opacity="1.00" d=" M 24.67 22.40 C 24.11 20.96 24.88 19.39 25.96 18.42 C 31.28 17.73 36.68 17.89 42.04 17.85 C 60.04 17.87 78.04 17.31 96.04 17.60 C 110.70 17.81 125.61 21.09 138.22 28.79 C 144.78 32.71 150.32 38.01 155.53 43.54 C 162.59 43.41 168.65 47.78 172.96 53.00 C 175.17 55.79 176.76 59.36 176.25 62.99 C 176.07 65.22 174.62 67.03 173.79 69.03 C 173.57 70.53 174.29 71.94 174.58 73.37 C 178.93 88.21 179.14 104.02 176.61 119.20 C 173.60 136.63 165.96 153.77 152.86 165.95 C 138.78 179.55 119.44 186.76 100.05 187.79 C 87.39 188.67 74.68 188.16 61.99 188.27 C 46.32 188.09 30.62 188.48 14.96 187.92 C 12.49 188.28 11.21 186.20 10.64 184.14 C 13.26 172.56 14.67 160.73 17.36 149.17 C 20.01 134.72 22.86 120.31 25.50 105.86 C 21.87 101.79 20.71 96.29 20.60 90.98 C 20.43 83.78 19.44 76.17 22.44 69.38 C 24.69 65.27 28.21 61.71 32.58 59.91 C 33.74 54.30 34.96 48.69 35.78 43.02 C 32.50 35.95 27.53 29.70 24.67 22.40 M 28.39 21.87 C 32.09 28.93 36.97 35.46 39.75 42.94 C 38.82 47.99 37.98 53.06 37.28 58.15 C 51.66 58.19 66.05 58.25 80.43 58.55 C 81.01 56.64 81.56 54.73 82.06 52.80 C 90.55 52.56 99.20 51.75 107.56 53.70 C 117.29 55.79 126.01 61.54 132.38 69.11 C 135.76 66.19 138.62 62.72 141.14 59.03 C 144.68 54.26 148.73 49.89 152.41 45.22 C 145.10 38.47 137.55 31.61 128.20 27.84 C 119.31 24.34 109.93 21.67 100.32 21.56 C 83.22 21.21 66.12 21.69 49.02 21.79 C 42.14 21.70 35.27 22.40 28.39 21.87 M 153.92 49.95 C 142.73 63.71 131.80 77.70 120.63 91.48 C 117.98 94.26 115.66 97.32 113.59 100.55 C 111.09 104.35 107.55 107.40 105.27 111.33 C 102.80 118.88 100.51 126.50 98.45 134.18 C 98.45 136.32 95.10 140.00 98.02 141.01 C 100.65 139.96 103.01 138.33 105.49 136.97 C 110.82 133.86 115.99 130.50 121.23 127.23 C 124.89 124.92 127.00 120.98 129.90 117.89 C 137.75 108.96 143.86 98.67 152.05 90.02 C 157.02 83.33 162.47 77.00 167.13 70.09 C 168.89 67.38 172.44 65.55 172.47 61.97 C 172.50 56.85 168.37 53.05 164.65 50.13 C 161.61 48.03 156.44 46.13 153.92 49.95 M 85.00 56.84 C 84.82 57.45 84.46 58.67 84.28 59.28 C 89.85 60.69 94.81 64.42 97.46 69.54 C 100.94 77.74 99.31 86.88 99.73 95.53 C 103.27 95.88 106.80 96.46 110.11 97.83 C 113.99 94.11 116.73 89.31 120.32 85.30 C 123.41 81.11 127.03 77.33 129.90 72.99 C 127.82 68.96 124.21 66.02 120.62 63.39 C 110.11 56.61 97.12 55.87 85.00 56.84 M 24.55 78.03 C 24.80 86.73 23.26 96.64 29.00 104.01 C 33.15 109.02 37.42 114.32 43.28 117.38 C 42.78 113.85 42.03 110.29 42.58 106.72 C 44.83 106.68 47.08 106.64 49.33 106.59 C 51.06 100.94 56.03 96.45 61.98 95.81 C 73.10 94.48 84.37 94.77 95.49 95.96 C 95.61 89.63 95.64 83.30 95.30 76.98 C 94.95 70.11 89.18 63.55 82.07 63.53 C 68.04 63.20 54.00 62.88 39.96 62.74 C 31.74 62.54 24.33 69.72 24.55 78.03 M 161.28 85.33 C 154.70 93.41 147.66 101.13 141.52 109.57 C 140.21 111.60 140.61 114.16 140.09 116.44 C 138.26 125.85 133.26 134.64 126.02 140.94 C 123.03 143.60 119.10 144.72 115.56 146.41 C 115.47 150.54 115.41 154.70 114.45 158.74 C 105.68 157.80 97.93 152.95 90.99 147.80 C 91.34 149.58 91.70 151.36 92.04 153.15 C 82.20 153.24 72.36 153.10 62.52 153.21 C 62.97 150.76 63.37 148.31 63.71 145.85 C 60.64 144.87 57.43 144.07 54.71 142.27 C 51.51 139.38 49.17 135.35 48.85 131.00 C 48.23 124.50 48.80 117.97 48.51 111.46 C 47.92 111.42 46.75 111.34 46.16 111.30 C 46.39 114.53 47.22 117.77 46.77 121.02 C 45.35 122.03 43.55 121.69 42.12 120.90 C 37.19 118.20 32.75 114.69 28.69 110.82 C 23.97 135.12 19.38 159.44 14.93 183.79 C 34.96 184.46 55.02 184.14 75.06 184.35 C 89.75 184.19 104.75 184.76 119.05 180.78 C 138.95 175.38 156.65 161.40 165.35 142.55 C 175.08 120.89 176.71 95.84 170.64 72.95 C 167.12 76.77 164.54 81.30 161.28 85.33 M 55.12 104.98 C 52.32 108.31 52.63 112.89 52.61 116.96 C 52.70 122.27 52.49 127.66 53.54 132.90 C 54.91 138.43 60.58 141.93 66.04 142.18 C 71.67 142.32 77.31 142.13 82.94 141.89 C 86.05 141.90 89.49 141.72 92.06 143.79 C 98.09 147.93 104.35 152.13 111.51 154.01 C 111.69 150.15 112.04 146.31 112.42 142.48 C 118.85 142.23 124.27 137.10 125.00 130.73 C 116.69 135.01 109.47 141.26 100.68 144.63 C 96.86 146.78 90.78 142.55 92.77 138.10 C 95.60 129.01 98.04 119.80 100.80 110.68 C 102.10 106.94 105.21 104.25 107.63 101.22 C 104.24 100.04 100.58 100.24 97.05 99.90 C 87.02 99.62 76.97 99.40 66.94 99.56 C 62.48 99.58 57.83 101.30 55.12 104.98 M 128.19 126.91 C 128.28 128.89 128.34 130.87 128.40 132.86 C 131.37 128.09 134.21 123.14 135.68 117.67 C 132.95 120.55 130.75 123.88 128.19 126.91 M 67.61 146.40 C 67.50 147.00 67.27 148.20 67.16 148.81 C 74.09 148.85 81.02 148.90 87.95 148.82 C 87.85 148.20 87.64 146.95 87.54 146.33 C 80.90 146.24 74.26 146.32 67.61 146.40 Z" />
<path fill="#f1f2e0" opacity="1.00" d=" M 154.48 57.26 C 152.45 56.60 154.33 54.69 155.79 55.15 C 160.23 56.71 164.26 59.96 166.42 64.18 C 166.38 64.86 166.29 66.21 166.25 66.88 C 162.99 62.93 159.50 58.94 154.48 57.26 Z" />
<path fill="#f1f2e0" opacity="1.00" d=" M 150.10 60.92 C 150.01 59.51 151.34 58.75 152.58 59.33 C 156.82 61.13 160.55 64.12 163.34 67.78 C 164.05 68.86 163.22 70.11 163.06 71.21 C 160.03 66.43 155.44 62.80 150.10 60.92 Z" />
<path fill="#f1f2e0" opacity="1.00" d=" M 45.17 81.18 C 47.17 80.73 49.88 81.64 49.89 84.05 C 50.65 87.19 46.77 89.65 44.18 87.88 C 41.39 86.53 42.15 81.71 45.17 81.18 Z" />
<path fill="#f1f2e0" opacity="1.00" d=" M 57.11 83.11 C 58.05 80.76 61.28 80.55 63.12 81.94 C 64.13 83.91 64.34 87.03 62.00 88.15 C 60.45 88.73 58.94 87.94 57.50 87.47 C 57.13 86.07 56.30 84.53 57.11 83.11 Z" />
<path fill="#f1f2e0" opacity="1.00" d=" M 70.92 83.12 C 71.91 80.35 75.15 80.69 77.36 81.60 C 78.59 83.63 78.65 86.86 76.04 87.77 C 73.13 89.37 69.57 86.18 70.92 83.12 Z" />
<path fill="#f1f2e0" opacity="1.00" d=" M 69.34 120.91 C 70.34 118.86 72.48 116.81 74.94 117.94 C 78.53 118.72 77.69 124.68 74.11 124.69 C 71.48 125.44 70.23 122.84 69.34 120.91 Z" />
<path fill="#f1f2e0" opacity="1.00" d=" M 86.26 118.36 C 89.27 116.93 92.20 120.77 90.29 123.33 C 89.08 126.14 84.17 124.95 84.24 121.91 C 83.92 120.39 85.00 119.05 86.26 118.36 Z" />
</g>
<g id="#1b3220ff">
<path fill="#1b3220" opacity="1.00" d=" M 28.39 21.87 C 35.27 22.40 42.14 21.70 49.02 21.79 C 66.12 21.69 83.22 21.21 100.32 21.56 C 109.93 21.67 119.31 24.34 128.20 27.84 C 137.55 31.61 145.10 38.47 152.41 45.22 C 148.73 49.89 144.68 54.26 141.14 59.03 C 138.62 62.72 135.76 66.19 132.38 69.11 C 126.01 61.54 117.29 55.79 107.56 53.70 C 99.20 51.75 90.55 52.56 82.06 52.80 C 81.56 54.73 81.01 56.64 80.43 58.55 C 66.05 58.25 51.66 58.19 37.28 58.15 C 37.98 53.06 38.82 47.99 39.75 42.94 C 36.97 35.46 32.09 28.93 28.39 21.87 Z" />
<path fill="#1b3220" opacity="1.00" d=" M 161.28 85.33 C 164.54 81.30 167.12 76.77 170.64 72.95 C 176.71 95.84 175.08 120.89 165.35 142.55 C 156.65 161.40 138.95 175.38 119.05 180.78 C 104.75 184.76 89.75 184.19 75.06 184.35 C 55.02 184.14 34.96 184.46 14.93 183.79 C 19.38 159.44 23.97 135.12 28.69 110.82 C 32.75 114.69 37.19 118.20 42.12 120.90 C 43.55 121.69 45.35 122.03 46.77 121.02 C 47.22 117.77 46.39 114.53 46.16 111.30 C 46.75 111.34 47.92 111.42 48.51 111.46 C 48.80 117.97 48.23 124.50 48.85 131.00 C 49.17 135.35 51.51 139.38 54.71 142.27 C 57.43 144.07 60.64 144.87 63.71 145.85 C 63.37 148.31 62.97 150.76 62.52 153.21 C 72.36 153.10 82.20 153.24 92.04 153.15 C 91.70 151.36 91.34 149.58 90.99 147.80 C 97.93 152.95 105.68 157.80 114.45 158.74 C 115.41 154.70 115.47 150.54 115.56 146.41 C 119.10 144.72 123.03 143.60 126.02 140.94 C 133.26 134.64 138.26 125.85 140.09 116.44 C 140.61 114.16 140.21 111.60 141.52 109.57 C 147.66 101.13 154.70 93.41 161.28 85.33 Z" />
</g>
<g id="#31322fff">
<path fill="#31322f" opacity="1.00" d=" M 153.92 49.95 C 156.44 46.13 161.61 48.03 164.65 50.13 C 168.37 53.05 172.50 56.85 172.47 61.97 C 172.44 65.55 168.89 67.38 167.13 70.09 C 162.47 77.00 157.02 83.33 152.05 90.02 C 143.86 98.67 137.75 108.96 129.90 117.89 C 127.00 120.98 124.89 124.92 121.23 127.23 C 115.99 130.50 110.82 133.86 105.49 136.97 C 103.30 135.67 100.96 134.64 98.45 134.18 C 100.51 126.50 102.80 118.88 105.27 111.33 C 107.55 107.40 111.09 104.35 113.59 100.55 C 115.66 97.32 117.98 94.26 120.63 91.48 C 131.80 77.70 142.73 63.71 153.92 49.95 M 154.48 57.26 C 159.50 58.94 162.99 62.93 166.25 66.88 C 166.29 66.21 166.38 64.86 166.42 64.18 C 164.26 59.96 160.23 56.71 155.79 55.15 C 154.33 54.69 152.45 56.60 154.48 57.26 M 150.10 60.92 C 155.44 62.80 160.03 66.43 163.06 71.21 C 163.22 70.11 164.05 68.86 163.34 67.78 C 160.55 64.12 156.82 61.13 152.58 59.33 C 151.34 58.75 150.01 59.51 150.10 60.92 M 147.37 65.29 C 141.82 70.54 138.29 77.45 133.14 83.06 C 126.48 91.82 118.63 99.69 112.84 109.07 C 113.39 109.22 114.51 109.52 115.06 109.67 C 119.79 104.52 123.50 98.49 128.28 93.38 C 135.84 85.16 141.91 75.74 149.20 67.29 C 149.99 66.37 150.54 65.29 151.05 64.19 C 149.75 64.28 148.25 64.11 147.37 65.29 M 108.95 111.66 C 107.61 116.35 105.39 120.83 105.00 125.76 L 104.95 125.81 C 107.55 125.84 109.62 127.33 111.38 129.10 C 115.30 126.81 119.20 124.34 122.46 121.15 C 120.17 118.28 117.31 115.97 114.60 113.52 C 112.81 112.63 110.90 112.06 108.95 111.66 Z" />
<path fill="#31322f" opacity="1.00" d=" M 128.19 126.91 C 130.75 123.88 132.95 120.55 135.68 117.67 C 134.21 123.14 131.37 128.09 128.40 132.86 C 128.34 130.87 128.28 128.89 128.19 126.91 Z" />
</g>
<g id="#2f4e31ff">
<path fill="#2f4e31" opacity="1.00" d=" M 24.55 78.03 C 24.33 69.72 31.74 62.54 39.96 62.74 C 54.00 62.88 68.04 63.20 82.07 63.53 C 89.18 63.55 94.95 70.11 95.30 76.98 C 95.64 83.30 95.61 89.63 95.49 95.96 C 84.37 94.77 73.10 94.48 61.98 95.81 C 56.03 96.45 51.06 100.94 49.33 106.59 C 47.08 106.64 44.83 106.68 42.58 106.72 C 42.03 110.29 42.78 113.85 43.28 117.38 C 37.42 114.32 33.15 109.02 29.00 104.01 C 23.26 96.64 24.80 86.73 24.55 78.03 M 45.17 81.18 C 42.15 81.71 41.39 86.53 44.18 87.88 C 46.77 89.65 50.65 87.19 49.89 84.05 C 49.88 81.64 47.17 80.73 45.17 81.18 M 57.11 83.11 C 56.30 84.53 57.13 86.07 57.50 87.47 C 58.94 87.94 60.45 88.73 62.00 88.15 C 64.34 87.03 64.13 83.91 63.12 81.94 C 61.28 80.55 58.05 80.76 57.11 83.11 M 70.92 83.12 C 69.57 86.18 73.13 89.37 76.04 87.77 C 78.65 86.86 78.59 83.63 77.36 81.60 C 75.15 80.69 71.91 80.35 70.92 83.12 Z" />
<path fill="#2f4e31" opacity="1.00" d=" M 67.61 146.40 C 74.26 146.32 80.90 146.24 87.54 146.33 C 87.64 146.95 87.85 148.20 87.95 148.82 C 81.02 148.90 74.09 148.85 67.16 148.81 C 67.27 148.20 67.50 147.00 67.61 146.40 Z" />
</g>
<g id="#7d7d73fd">
<path fill="#7d7d73" opacity="1.00" d=" M 147.37 65.29 C 148.25 64.11 149.75 64.28 151.05 64.19 C 150.54 65.29 149.99 66.37 149.20 67.29 C 141.91 75.74 135.84 85.16 128.28 93.38 C 123.50 98.49 119.79 104.52 115.06 109.67 C 114.51 109.52 113.39 109.22 112.84 109.07 C 118.63 99.69 126.48 91.82 133.14 83.06 C 138.29 77.45 141.82 70.54 147.37 65.29 Z" />
<path fill="#7d7d73" opacity="1.00" d=" M 114.60 113.52 C 117.31 115.97 120.17 118.28 122.46 121.15 C 119.20 124.34 115.30 126.81 111.38 129.10 C 109.62 127.33 107.55 125.84 104.95 125.81 L 105.00 125.76 C 108.77 122.19 112.26 118.18 114.60 113.52 Z" />
</g>
<g id="#7e4c15ff">
<path fill="#7e4c15" opacity="1.00" d=" M 55.12 104.98 C 57.83 101.30 62.48 99.58 66.94 99.56 C 76.97 99.40 87.02 99.62 97.05 99.90 C 100.58 100.24 104.24 100.04 107.63 101.22 C 105.21 104.25 102.10 106.94 100.80 110.68 C 98.04 119.80 95.60 129.01 92.77 138.10 C 90.78 142.55 96.86 146.78 100.68 144.63 C 109.47 141.26 116.69 135.01 125.00 130.73 C 124.27 137.10 118.85 142.23 112.42 142.48 C 112.04 146.31 111.69 150.15 111.51 154.01 C 104.35 152.13 98.09 147.93 92.06 143.79 C 89.49 141.72 86.05 141.90 82.94 141.89 C 77.31 142.13 71.67 142.32 66.04 142.18 C 60.58 141.93 54.91 138.43 53.54 132.90 C 52.49 127.66 52.70 122.27 52.61 116.96 C 52.63 112.89 52.32 108.31 55.12 104.98 M 69.34 120.91 C 70.23 122.84 71.48 125.44 74.11 124.69 C 77.69 124.68 78.53 118.72 74.94 117.94 C 72.48 116.81 70.34 118.86 69.34 120.91 M 86.26 118.36 C 85.00 119.05 83.92 120.39 84.24 121.91 C 84.17 124.95 89.08 126.14 90.29 123.33 C 92.20 120.77 89.27 116.93 86.26 118.36 Z" />
</g>
<g id="#c2c1b0f8">
<path fill="#c2c1b0" opacity="0.97" d=" M 108.95 111.66 C 110.90 112.06 112.81 112.63 114.60 113.52 C 112.26 118.18 108.77 122.19 105.00 125.76 C 105.39 120.83 107.61 116.35 108.95 111.66 Z" />
</g>
<g id="#050701ff">
<path fill="#050701" opacity="1.00" d=" M 98.45 134.18 C 100.96 134.64 103.30 135.67 105.49 136.97 C 103.01 138.33 100.65 139.96 98.02 141.01 C 95.10 140.00 98.45 136.32 98.45 134.18 Z" />
</g>
</svg>
