<?xml version="1.0" encoding="UTF-8" ?>
<!DOCTYPE svg PUBLIC "-//W3C//DTD SVG 1.1//EN" "http://www.w3.org/Graphics/SVG/1.1/DTD/svg11.dtd">
<svg width="502pt" height="276pt" viewBox="0 0 502 276" version="1.1" xmlns="http://www.w3.org/2000/svg">
<g id="#ce6130ff">
<path fill="#ce6130" opacity="1.00" d=" M 321.43 21.53 C 325.59 20.45 330.13 21.78 333.09 24.88 C 339.69 30.61 337.44 43.12 329.14 46.05 C 321.69 49.15 312.40 43.10 312.19 35.07 C 311.57 29.06 315.73 23.26 321.43 21.53 Z" />
<path fill="#ce6130" opacity="1.00" d=" M 23.67 33.61 C 35.80 33.35 47.94 33.61 60.07 33.69 C 70.45 33.98 80.99 36.34 89.51 42.56 C 99.96 49.70 105.82 62.50 105.58 75.02 C 105.96 85.76 104.02 97.29 96.70 105.60 C 87.91 115.81 74.13 120.25 60.97 120.33 C 48.58 120.33 36.19 120.30 23.79 120.25 C 23.60 91.37 23.82 62.49 23.67 33.61 M 45.32 51.51 C 45.36 68.83 45.44 86.14 45.43 103.46 C 56.14 103.46 68.21 104.39 77.12 97.26 C 83.88 92.14 85.27 83.01 84.71 75.06 C 84.94 65.13 78.09 55.56 68.59 52.64 C 61.04 50.48 53.06 51.55 45.32 51.51 Z" />
<path fill="#ce6130" opacity="1.00" d=" M 139.49 54.78 C 150.16 53.07 161.70 54.10 170.88 60.24 C 183.90 68.52 188.08 86.23 183.62 100.42 C 180.33 110.61 171.04 117.98 160.87 120.62 C 152.06 123.17 142.52 122.37 133.97 119.25 C 124.64 115.76 116.37 108.48 113.24 98.84 C 110.31 88.14 111.62 75.67 118.85 66.92 C 123.94 60.46 131.61 56.61 139.49 54.78 M 145.11 69.99 C 139.31 71.07 135.06 76.31 133.73 81.84 C 132.97 85.91 132.99 90.17 133.87 94.22 C 135.29 99.83 139.23 105.36 145.09 106.81 C 150.04 108.30 155.48 106.56 159.37 103.36 C 163.64 99.51 165.19 93.60 164.84 88.01 C 165.24 82.25 162.75 76.39 158.19 72.82 C 154.60 69.81 149.60 69.06 145.11 69.99 Z" />
<path fill="#ce6130" opacity="1.00" d=" M 212.96 62.25 C 217.76 58.77 222.80 54.90 228.92 54.32 C 234.49 54.01 240.44 53.91 245.47 56.73 C 249.58 58.67 252.41 62.34 254.88 66.01 C 258.54 60.72 263.67 55.90 270.16 54.58 C 278.11 53.55 287.07 54.20 293.51 59.50 C 298.29 63.57 302.06 69.53 301.76 76.01 C 301.95 90.85 301.78 105.69 301.88 120.53 C 295.14 120.42 288.40 120.71 281.66 120.37 C 281.50 108.91 281.56 97.44 281.56 85.98 C 281.44 81.90 281.07 77.17 277.73 74.33 C 271.54 68.75 259.43 73.19 259.32 81.86 C 258.92 94.69 259.40 107.52 259.22 120.35 C 252.31 120.43 245.39 120.45 238.48 120.38 C 238.45 107.32 238.71 94.25 238.37 81.19 C 238.22 73.91 229.37 70.47 223.20 72.33 C 218.21 73.21 214.57 77.95 214.90 82.99 C 214.84 95.41 215.25 107.83 215.13 120.25 C 207.95 120.33 200.76 120.42 193.58 120.21 C 193.46 98.71 193.50 77.20 193.50 55.70 C 199.87 55.57 206.26 55.78 212.64 55.58 C 212.74 57.80 212.85 60.03 212.96 62.25 M 248.29 99.96 C 248.47 103.34 251.18 98.42 248.29 99.96 Z" />
<path fill="#ce6130" opacity="1.00" d=" M 382.50 54.70 C 388.69 53.77 395.31 54.09 400.99 56.95 C 408.81 60.75 413.97 69.32 413.87 77.99 C 413.87 92.11 413.96 106.24 413.81 120.37 C 406.99 120.46 400.18 120.32 393.37 120.49 C 393.11 108.29 393.42 96.09 393.26 83.89 C 393.11 81.17 392.86 78.19 391.01 76.04 C 385.14 68.64 370.40 72.00 369.59 81.87 C 369.17 94.75 369.70 107.64 369.44 120.52 C 362.38 120.50 355.33 120.52 348.27 120.49 C 347.56 106.32 348.42 92.15 347.97 77.99 C 348.16 70.77 348.44 63.54 347.79 56.33 C 354.28 56.06 360.79 56.30 367.29 56.25 C 367.35 58.82 367.41 61.39 367.52 63.96 C 371.50 59.55 376.50 55.71 382.50 54.70 Z" />
<path fill="#ce6130" opacity="1.00" d=" M 431.95 64.94 C 438.34 57.56 448.32 53.73 458.01 54.24 C 468.68 54.02 480.50 58.36 485.78 68.21 C 490.13 75.61 489.27 84.49 489.44 92.71 C 474.38 93.94 459.21 92.31 444.10 92.92 C 444.32 99.95 449.85 106.63 456.96 107.39 C 461.25 107.79 465.85 107.87 469.77 105.82 C 472.14 104.69 473.99 102.78 476.12 101.28 C 480.26 104.10 483.65 107.90 487.53 111.07 C 480.82 119.58 469.46 123.00 458.95 122.63 C 448.99 122.86 438.69 119.53 431.51 112.45 C 425.23 106.05 422.74 96.81 423.28 88.02 C 422.85 79.53 426.20 71.13 431.95 64.94 M 449.63 71.69 C 445.92 74.29 444.87 78.98 444.17 83.18 C 452.95 83.20 461.73 82.99 470.49 82.80 C 470.76 77.74 469.13 71.66 463.81 69.84 C 459.12 68.97 453.58 68.44 449.63 71.69 Z" />
<path fill="#ce6130" opacity="1.00" d=" M 314.26 56.15 C 321.28 56.18 328.30 56.10 335.32 56.19 C 335.18 77.65 335.43 99.10 335.21 120.55 C 328.22 120.62 321.24 120.57 314.25 120.62 C 313.39 104.76 314.10 88.88 313.85 73.01 C 313.65 67.38 314.24 61.77 314.26 56.15 Z" />
<path fill="#ce6130" opacity="1.00" d=" M 277.49 128.68 C 284.59 126.52 293.31 132.21 292.87 139.96 C 293.97 147.44 286.25 153.94 279.08 152.52 C 273.41 151.96 268.56 146.84 268.65 141.09 C 268.47 135.60 272.35 130.43 277.49 128.68 Z" />
<path fill="#ce6130" opacity="1.00" d=" M 49.61 136.31 C 57.50 136.28 65.38 136.39 73.27 136.22 C 85.11 165.55 96.71 194.97 108.03 224.50 C 100.91 224.55 93.78 224.52 86.66 224.46 C 84.37 218.48 81.86 212.57 80.00 206.44 C 68.10 206.20 56.21 206.47 44.31 206.31 C 42.15 212.31 40.50 218.49 38.19 224.45 C 31.15 224.34 24.11 224.45 17.07 224.42 C 28.19 195.15 38.59 165.62 49.61 136.31 M 61.31 157.76 C 56.80 168.58 53.03 179.69 49.39 190.83 C 57.72 191.39 66.01 190.67 74.34 190.81 C 70.20 179.72 66.25 168.52 61.31 157.76 Z" />
<path fill="#ce6130" opacity="1.00" d=" M 110.72 177.47 C 114.28 168.25 122.68 161.26 132.14 158.70 C 138.93 157.85 146.42 157.60 152.47 161.33 C 155.55 163.02 157.79 165.77 160.20 168.26 C 160.20 165.61 160.19 162.96 160.25 160.32 C 166.78 160.32 173.31 160.27 179.84 160.29 C 179.87 181.19 179.93 202.07 179.89 222.97 C 180.51 232.91 179.71 242.85 179.83 252.79 C 173.13 252.71 166.43 252.89 159.73 252.66 C 160.44 247.13 160.18 241.56 159.87 236.02 C 159.80 229.49 159.79 222.96 159.76 216.43 C 156.40 219.87 152.87 223.59 147.99 224.71 C 140.62 226.59 132.49 226.35 125.47 223.27 C 115.96 218.62 109.58 208.64 108.63 198.17 C 108.07 191.25 107.87 183.97 110.72 177.47 M 140.31 175.36 C 133.30 177.96 129.92 185.88 130.38 192.96 C 129.74 199.67 132.99 206.89 139.29 209.77 C 144.59 212.78 151.67 211.18 155.60 206.67 C 161.12 201.33 161.16 192.82 159.67 185.81 C 157.84 177.55 148.25 172.23 140.31 175.36 Z" />
<path fill="#ce6130" opacity="1.00" d=" M 191.66 160.38 C 198.71 160.27 205.77 160.37 212.83 160.30 C 212.99 173.54 212.61 186.79 212.73 200.03 C 212.73 204.79 216.59 208.79 221.08 209.84 C 227.37 211.49 235.98 209.01 237.54 201.93 C 238.65 188.07 237.56 174.17 237.82 160.29 C 244.50 160.27 251.19 160.32 257.88 160.27 C 257.82 181.67 257.82 203.12 257.79 224.54 C 251.32 224.63 244.86 224.63 238.39 224.53 C 238.38 222.30 238.37 220.05 238.35 217.82 C 234.06 220.97 229.64 224.27 224.26 225.17 C 217.03 226.49 209.02 226.26 202.53 222.45 C 196.04 218.74 191.58 211.52 191.76 203.97 C 191.64 189.44 191.72 174.91 191.66 160.38 Z" />
<path fill="#ce6130" opacity="1.00" d=" M 271.22 160.31 C 278.06 160.35 284.90 160.40 291.75 160.40 C 291.85 181.78 291.81 203.18 291.59 224.57 C 284.82 224.60 278.04 224.64 271.27 224.57 C 271.22 203.15 271.38 181.73 271.22 160.31 Z" />
</g>
</svg>
